<svg xmlns="http://www.w3.org/2000/svg" xmlns:xlink="http://www.w3.org/1999/xlink" width="56" height="30" viewBox="0 0 56 30"><defs><style>.a{fill:#fff;}.b{clip-path:url(#a);}.c{fill:#2b2e34;}</style><clipPath id="a"><rect class="a" width="56" height="30" transform="translate(111 5)"/></clipPath></defs><g class="b" transform="translate(-111 -5)"><g transform="translate(111 16)"><path class="c" d="M86.8-87.844a3.328,3.328,0,0,0-3.45,3.513,3.314,3.314,0,0,0,3.45,3.5,3.326,3.326,0,0,0,3.45-3.5A3.334,3.334,0,0,0,86.8-87.844Zm0,5.965c-1.268,0-2.12-.9-2.12-2.452s.852-2.463,2.12-2.463c1.3,0,2.12.946,2.12,2.463C88.922-82.783,88.06-81.879,86.8-81.879Z" transform="translate(-83.352 88.291)"/><path class="c" d="M124.019-78.844a2.745,2.745,0,0,0-1.683.675l-.125-.551h-1.06V-73.8h1.237v-3.44a2.01,2.01,0,0,1,1.205-.52c.634,0,.759.489.759,1.091V-73.8H125.6v-3.253C125.6-78.46,124.8-78.844,124.019-78.844Z" transform="translate(-113.295 81.162)"/><path class="c" d="M149.215-78.844c-1.4,0-2.214,1.112-2.214,2.588a2.346,2.346,0,0,0,2.515,2.557,3.289,3.289,0,0,0,1.735-.457l-.374-.852a2.466,2.466,0,0,1-1.247.333,1.256,1.256,0,0,1-1.382-1.247H151.4v-.291C151.4-77.846,150.6-78.844,149.215-78.844Zm-.977,2.058a1,1,0,0,1,.956-1.112c.655,0,.925.551.946,1.112Z" transform="translate(-133.773 81.162)"/><path class="c" d="M174.1-86.057c0-.551.457-.738.935-.738a3.556,3.556,0,0,1,1.632.436V-87.5a3.875,3.875,0,0,0-1.673-.343,1.984,1.984,0,0,0-2.224,1.891c0,2.089,2.962,1.923,2.962,3.263,0,.592-.572.811-1.143.811a2.7,2.7,0,0,1-1.548-.5l-.488.956a3.681,3.681,0,0,0,2.068.592c1.4,0,2.442-.748,2.442-1.964C177.061-84.966,174.1-84.8,174.1-86.057Z" transform="translate(-154.013 88.291)"/><path class="c" d="M198.8-79.965c-.322,0-.478-.166-.478-.623v-2.432H199.5l.3-.967H198.32v-1.507l-1.237.364v1.143H196.2v.967h.883v2.733a1.258,1.258,0,0,0,1.4,1.32,2.811,2.811,0,0,0,1.434-.384l-.374-.852A1.391,1.391,0,0,1,198.8-79.965Z" transform="translate(-172.747 86.429)"/><path class="c" d="M218.452-78.844A2.411,2.411,0,0,0,216-76.277a2.419,2.419,0,0,0,2.452,2.577,2.427,2.427,0,0,0,2.463-2.577A2.419,2.419,0,0,0,218.452-78.844Zm0,4.146c-.779,0-1.185-.665-1.185-1.58s.405-1.569,1.185-1.569,1.185.665,1.185,1.569S219.232-74.7,218.452-74.7Z" transform="translate(-188.431 81.162)"/><path class="c" d="M245.809-78.844a5.764,5.764,0,0,0-1.86.312v7.191h1.237v-2.473a2.629,2.629,0,0,0,.759.114,2.444,2.444,0,0,0,2.557-2.577A2.4,2.4,0,0,0,245.809-78.844Zm.042,4.116a1.723,1.723,0,0,1-.665-.125v-2.889a2.071,2.071,0,0,1,.582-.083,1.365,1.365,0,0,1,1.465,1.548C247.233-75.331,246.765-74.728,245.851-74.728Z" transform="translate(-210.572 81.162)"/><path class="c" d="M274.489-87.253a3.47,3.47,0,0,0-1.538-.291H271.3V-80.7h1.247v-2.359h.291a3.962,3.962,0,0,0,1.455-.239A2.052,2.052,0,0,0,275.6-85.3,2.032,2.032,0,0,0,274.489-87.253Zm-.769,3.024a1.739,1.739,0,0,1-.8.156h-.374v-2.453h.353a1.708,1.708,0,0,1,.852.177,1.165,1.165,0,0,1,.54,1.05A1.088,1.088,0,0,1,273.72-84.229Z" transform="translate(-232.237 88.053)"/><path class="c" d="M297.9-83.635c-.229,0-.364-.1-.364-.447V-90H296.3v6.246a1.076,1.076,0,0,0,1.237,1.185,2.421,2.421,0,0,0,.914-.177l-.239-.956A1.03,1.03,0,0,1,297.9-83.635Z" transform="translate(-252.042 89.995)"/><path class="c" d="M313.532-78.244h-1.247v3.523a1.422,1.422,0,0,1-1.008.436.725.725,0,0,1-.738-.447,1.446,1.446,0,0,1-.1-.613v-2.9H309.2v3.024a2.523,2.523,0,0,0,.167,1.029,1.524,1.524,0,0,0,1.476.967,2.277,2.277,0,0,0,1.528-.613l.187.509h1.06a5.312,5.312,0,0,1-.083-1.216Z" transform="translate(-262.26 80.686)"/><path class="c" d="M335.994-77.42c0-.322.281-.447.7-.447a3.512,3.512,0,0,1,1.393.312V-78.6a4.287,4.287,0,0,0-1.445-.239c-1.153,0-1.86.613-1.86,1.486,0,1.642,2.307,1.33,2.307,2.162,0,.374-.364.52-.863.52a2.516,2.516,0,0,1-1.341-.405l-.384.9a3.506,3.506,0,0,0,1.808.478c1.06,0,2-.447,2-1.528C338.3-76.942,335.994-76.641,335.994-77.42Z" transform="translate(-282.302 81.162)"/></g></g></svg>