<svg height="30" viewBox="0 0 56 30" width="56" xmlns="http://www.w3.org/2000/svg" xmlns:xlink="http://www.w3.org/1999/xlink"><clipPath id="a"><path d="m578 5h56v30h-56z"/></clipPath><g clip-path="url(#a)" transform="translate(-578 -5)"><g fill="#2b2e34" transform="translate(578.25 9)"><path d="m67.854 32.969c0 1.078-1.365 3.69-4.786 6.353.556-2.814 2.629-6.875 4.432-6.875.236 0 .354.185.354.522m1.416.118c0-.624-.472-.995-1.466-.995-2.882 0-6.185 5.949-6.185 8.982 0 1.045.388 1.735 1.314 1.735 1.23 0 2.983-1.23 3.994-2.106a.181.181 0 0 0 .05-.118.1.1 0 0 0 -.1-.1c-.034 0-.05.017-.084.034a4.623 4.623 0 0 1 -3.05 1.432c-.573 0-.809-.539-.809-1.365a5.141 5.141 0 0 1 .066-.843c3.977-2.663 6.269-5.291 6.269-6.656m-6.555-.118c0 1.078-1.365 3.69-4.786 6.353.556-2.814 2.628-6.875 4.432-6.875.236 0 .354.185.354.522m1.415.118c0-.624-.471-.995-1.466-.995-2.881 0-6.184 5.949-6.184 8.982 0 1.045.387 1.735 1.314 1.735 1.23 0 2.982-1.23 3.993-2.106a.183.183 0 0 0 .051-.118.1.1 0 0 0 -.1-.1c-.034 0-.051.017-.085.034a4.62 4.62 0 0 1 -3.052 1.431c-.573 0-.809-.539-.809-1.365a5.107 5.107 0 0 1 .067-.842c3.977-2.663 6.268-5.291 6.268-6.656m-7.465 7.5a.1.1 0 0 0 -.1-.1c-.034 0-.05.017-.084.034-.455.371-2.258 1.82-3.269 1.82-.371 0-.472-.3-.472-.657a6.941 6.941 0 0 1 .185-1.179c0-.185-.252-.185-.252-.185-.2 0-.741.067-.826.2a4.311 4.311 0 0 1 -2.93 1.78.435.435 0 0 1 -.489-.455c0-.725 1.129-2.039 3.421-2.073.085 0 .168-.068.168-.118 0-.034-.033-.067-.135-.084-.034 0-.1-.017-.185-.017-2.949 0-5.173 1.736-5.173 2.73 0 .387.354.674 1.146.674a6.305 6.305 0 0 0 4.011-1.9 2.411 2.411 0 0 0 -.2.876c0 .455.219.927 1.129.927 1.129 0 3.05-1.315 4.011-2.157a.181.181 0 0 0 .05-.118m-15.081-.034a.1.1 0 0 0 -.1-.1.093.093 0 0 0 -.085.034c-.371.371-2.325 1.7-3.3 1.7a.414.414 0 0 1 -.472-.455c0-.792.59-1.516.59-1.718 0-.152-.169-.253-.354-.253-.169 0-.27.017-.539.017a3.621 3.621 0 0 1 -1.213-.135.27.27 0 0 0 -.168-.068c-.068 0-.118.068-.185.236a3.245 3.245 0 0 1 -.843.944.175.175 0 0 0 -.084.135c0 .034.034.051.084.051a.314.314 0 0 0 .186-.067 2.486 2.486 0 0 0 .438-.354c.067-.068.118-.118.152-.118.219.1.236.1 1.079.1.286 0 .353.034.353.084a.125.125 0 0 1 -.034.068 3.35 3.35 0 0 0 -.825 1.685c0 .337.2.607.792.607 1.264 0 4.061-1.87 4.482-2.275a.182.182 0 0 0 .051-.118m-6.2 0a.1.1 0 0 0 -.1-.1c-.034 0-.051.017-.084.034a2.286 2.286 0 0 1 -1.433.573 1.244 1.244 0 0 1 -1.3-1.382c0-.051-.034-.068-.1-.068-.185 0-.944.573-.944.775a.64.64 0 0 0 .033.152 2.341 2.341 0 0 1 .085.674 1.355 1.355 0 0 1 -1.432 1.281.945.945 0 0 1 -1.045-.978c0-.775.927-1.685 2.713-1.735.084 0 .169-.068.169-.118 0-.034-.034-.067-.135-.084-.034 0-.1-.017-.186-.017-2.544 0-4.01 1.332-4.01 2.326 0 .809.741 1.146 1.668 1.146a4.02 4.02 0 0 0 3.269-1.5 2.136 2.136 0 0 0 .792.152 3.429 3.429 0 0 0 1.988-1.011.182.182 0 0 0 .051-.118m-9.824 3.775c0 2.123-1.685 4.667-3.2 4.667-.623 0-.842-.354-.842-1.415 0-1.213.91-3.522 2.039-5.932a2.562 2.562 0 0 1 2.005 2.68m2.14-3.943a.625.625 0 0 0 -.506-.506 10.349 10.349 0 0 1 -3.185.792c1.163-2.41 2.443-4.819 3.185-6.285a1.407 1.407 0 0 0 .219-.607.425.425 0 0 0 -.118-.287c-.152-.168-.539-.674-.657-.674-.1 0-.2.1-.337.371 0 0-2.022 3.977-3.69 7.718-.388.068-.809.135-1.247.2-.067 0-.269.151-.269.252 0 .051.033.085.135.085h.219c.135 0 .371 0 .91.034-1.1 2.46-1.988 4.735-1.988 5.561 0 1.567.775 2.191 1.786 2.191 1.921 0 4.684-2.258 4.684-4.7 0-1.449-.842-2.764-3.117-3.236l.085-.185c1.415-.135 2.8-.219 3.454-.354.32-.067.438-.219.438-.371" transform="translate(-14.865 -23.421)"/><path d="m6.935 2.781a2.565 2.565 0 0 0 -.947-.728 2.827 2.827 0 0 0 -1.231-.293 3.032 3.032 0 0 0 -.737.092 2.255 2.255 0 0 0 -.67.285 1.575 1.575 0 0 0 -.494.5 1.385 1.385 0 0 0 -.193.745 1.329 1.329 0 0 0 .168.687 1.518 1.518 0 0 0 .461.486 3.111 3.111 0 0 0 .708.353q.419.151.921.3.569.184 1.181.419a4.6 4.6 0 0 1 1.122.62 3.074 3.074 0 0 1 .838.972 2.961 2.961 0 0 1 .327 1.457 3.719 3.719 0 0 1 -.352 1.667 3.435 3.435 0 0 1 -.937 1.183 4 4 0 0 1 -1.374.7 5.787 5.787 0 0 1 -1.658.235 6.226 6.226 0 0 1 -2.262-.427 4.368 4.368 0 0 1 -1.806-1.262l1.508-1.407a3.027 3.027 0 0 0 1.164.955 3.274 3.274 0 0 0 1.432.352 3.228 3.228 0 0 0 .754-.092 2 2 0 0 0 .7-.31 1.733 1.733 0 0 0 .5-.545 1.576 1.576 0 0 0 .193-.812 1.325 1.325 0 0 0 -.218-.779 1.954 1.954 0 0 0 -.589-.534 4.237 4.237 0 0 0 -.871-.4l-1.055-.348a10.306 10.306 0 0 1 -1.072-.4 3.548 3.548 0 0 1 -.963-.62 2.984 2.984 0 0 1 -.7-.947 3.233 3.233 0 0 1 -.268-1.4 3.064 3.064 0 0 1 .385-1.558 3.332 3.332 0 0 1 .985-1.081 4.4 4.4 0 0 1 1.39-.637 6.08 6.08 0 0 1 1.583-.209 5.642 5.642 0 0 1 1.835.319 4.484 4.484 0 0 1 1.617.955z"/><path d="m39.493 1.116h2.107v4.792h5.545v-4.792h2.115v11.861h-2.111v-5.26h-5.549v5.26h-2.107z" transform="translate(-28.822 -.815)"/><path d="m6.349 12.464a6.873 6.873 0 0 1 -2.538-.464 6 6 0 0 1 -2.01-1.29 5.937 5.937 0 0 1 -1.323-1.974 6.571 6.571 0 0 1 -.478-2.536 6.66 6.66 0 0 1 .478-2.573 5.668 5.668 0 0 1 1.322-1.952 5.887 5.887 0 0 1 2.011-1.239 7.228 7.228 0 0 1 2.538-.436 7.348 7.348 0 0 1 2.563.436 5.965 5.965 0 0 1 2.027 1.24 5.619 5.619 0 0 1 1.332 1.952 6.664 6.664 0 0 1 .478 2.572 6.575 6.575 0 0 1 -.478 2.538 5.882 5.882 0 0 1 -1.332 1.977 6.075 6.075 0 0 1 -2.027 1.285 6.986 6.986 0 0 1 -2.563.464zm-3.281-9.931c-.16 0-.3.17-.413.5a5.453 5.453 0 0 1 -1.066 1.846 1.372 1.372 0 0 0 -.442.879 1.352 1.352 0 0 0 .442 1 13.243 13.243 0 0 0 3.461 1.777c1.37.543 2.658.976 2.712.995a7.009 7.009 0 0 0 1.08.084 2.69 2.69 0 0 0 2.146-.734c.452-.618-.052-1-.967-1.69a14.127 14.127 0 0 1 -2.493-2.283 6.3 6.3 0 0 1 -.554-.858c-.125-.292-.282-.329-.4-.329a.979.979 0 0 0 -.418.122 2.55 2.55 0 0 1 -1.093.3 1.623 1.623 0 0 1 -1.48-1.104c-.003-.005-.243-.505-.515-.505z" transform="translate(22.649)"/><path d="m139.19 1.116h7.857v1.843h-5.747v3.016h5.444v1.775h-5.444v3.35h6.047v1.876h-8.157z" transform="translate(-101.581 -.815)"/><path d="m181.277 2.781a2.563 2.563 0 0 0 -.947-.728 2.826 2.826 0 0 0 -1.231-.293 3.03 3.03 0 0 0 -.737.092 2.255 2.255 0 0 0 -.67.285 1.576 1.576 0 0 0 -.494.5 1.385 1.385 0 0 0 -.193.745 1.326 1.326 0 0 0 .168.687 1.518 1.518 0 0 0 .461.486 3.114 3.114 0 0 0 .712.352q.419.151.922.3.569.184 1.181.419a4.607 4.607 0 0 1 1.122.62 3.077 3.077 0 0 1 .838.972 2.964 2.964 0 0 1 .327 1.457 3.719 3.719 0 0 1 -.352 1.667 3.435 3.435 0 0 1 -.938 1.181 4 4 0 0 1 -1.374.7 5.787 5.787 0 0 1 -1.659.235 6.228 6.228 0 0 1 -2.262-.427 4.37 4.37 0 0 1 -1.809-1.265l1.508-1.407a3.027 3.027 0 0 0 1.165.955 3.273 3.273 0 0 0 1.432.352 3.228 3.228 0 0 0 .754-.092 2.009 2.009 0 0 0 .7-.31 1.736 1.736 0 0 0 .5-.545 1.576 1.576 0 0 0 .193-.812 1.323 1.323 0 0 0 -.218-.779 1.948 1.948 0 0 0 -.586-.536 4.235 4.235 0 0 0 -.871-.394l-1.055-.352a10.3 10.3 0 0 1 -1.072-.4 3.548 3.548 0 0 1 -.964-.62 2.992 2.992 0 0 1 -.7-.947 3.238 3.238 0 0 1 -.268-1.4 3.067 3.067 0 0 1 .377-1.558 3.33 3.33 0 0 1 .989-1.081 4.4 4.4 0 0 1 1.39-.637 6.08 6.08 0 0 1 1.584-.203 5.643 5.643 0 0 1 1.834.319 4.484 4.484 0 0 1 1.616.955z" transform="translate(-127.235)"/></g></g></svg>