<svg xmlns="http://www.w3.org/2000/svg" xmlns:xlink="http://www.w3.org/1999/xlink" width="56" height="30" viewBox="0 0 56 30"><defs><style>.a{fill:#fff;}.b{clip-path:url(#a);}.c{fill:#2b2e34;}</style><clipPath id="a"><rect class="a" width="56" height="30" transform="translate(648 5)"/></clipPath></defs><g class="b" transform="translate(-648 -5)"><g transform="translate(648 13)"><path class="c" d="M241.272,7.308a1.916,1.916,0,0,0,2.113-1.892A2.08,2.08,0,0,0,241.94,3.5l-.345-.146c-.6-.27-.906-.437-.906-.769a.466.466,0,0,1,.518-.437.977.977,0,0,1,.841.478l1.014-1.019A2.249,2.249,0,0,0,241.207.8a1.918,1.918,0,0,0-2.027,1.851,2.239,2.239,0,0,0,1.553,2.017l.367.166c.561.25.776.416.776.707S241.682,6,241.25,6a1.665,1.665,0,0,1-1.229-.79L238.9,6.1a2.591,2.591,0,0,0,2.372,1.206" transform="translate(-187.385 -0.779)"/><path class="c" d="M212.974,7.4h1.531V2.435h1.574V1H211.4V2.435h1.574Z" transform="translate(-165.815 -0.938)"/><rect class="c" width="1.509" height="6.404" transform="translate(42.156 0.062)"/><path class="c" d="M162.317,7.467a2.557,2.557,0,0,0,2.717-2.662V1h-1.488V4.826a1.23,1.23,0,1,1-2.458,0V1H159.6V4.805a2.557,2.557,0,0,0,2.717,2.662" transform="translate(-125.185 -0.938)"/><path class="c" d="M132.472,7.308a1.916,1.916,0,0,0,2.113-1.892A2.08,2.08,0,0,0,133.14,3.5l-.345-.146c-.6-.27-.906-.437-.906-.769a.466.466,0,0,1,.518-.437.977.977,0,0,1,.841.478l1.013-1.019A2.249,2.249,0,0,0,132.407.8a1.918,1.918,0,0,0-2.027,1.851,2.24,2.24,0,0,0,1.553,2.017l.367.166c.561.25.776.416.776.707S132.882,6,132.45,6a1.665,1.665,0,0,1-1.229-.79L130.1,6.1a2.545,2.545,0,0,0,2.372,1.206" transform="translate(-102.046 -0.779)"/><path class="c" d="M90.5,7.167h1.488V4.027L93.8,5.774l1.811-1.747v3.14H97.12V.7L93.8,3.881,90.5.7Z" transform="translate(-70.985 -0.7)"/><rect class="c" width="1.509" height="6.404" transform="translate(15.633 0.062)"/><path class="c" d="M28.986,7.229l1.747-3.68,1.747,3.68L34.786.762H33.255L32.242,3.757,30.732.7,29.244,3.757,28.231.762H26.7Z" transform="translate(-20.943 -0.7)"/><path class="c" d="M2.372,7.229A1.916,1.916,0,0,0,4.485,5.337,2.08,2.08,0,0,0,3.04,3.424L2.7,3.258c-.6-.27-.906-.437-.906-.769a.465.465,0,0,1,.518-.437.977.977,0,0,1,.841.478L4.162,1.511A2.249,2.249,0,0,0,2.307.7,1.918,1.918,0,0,0,.28,2.551,2.24,2.24,0,0,0,1.833,4.568l.367.166c.561.25.776.416.776.707S2.782,5.9,2.35,5.9a1.665,1.665,0,0,1-1.229-.79L0,5.981A2.541,2.541,0,0,0,2.372,7.229" transform="translate(0 -0.7)"/><path class="c" d="M80.887,19.486c0,.832-1.1,2.849-3.817,4.886.453-2.163,2.092-5.281,3.536-5.281.194-.021.28.125.28.4m1.143.083c0-.478-.367-.769-1.164-.769-2.307,0-4.938,4.575-4.938,6.9,0,.811.3,1.331,1.057,1.331a6.483,6.483,0,0,0,3.191-1.622.155.155,0,0,0,.043-.083.091.091,0,0,0-.086-.083c-.022,0-.043.021-.065.021a3.708,3.708,0,0,1-2.437,1.1c-.453,0-.647-.416-.647-1.06,0-.187.022-.416.043-.645,3.17-2.017,5-4.055,5-5.094m-5.24-.083c0,.832-1.1,2.849-3.817,4.886.453-2.163,2.092-5.281,3.536-5.281.194-.021.28.125.28.4m1.143.083c0-.478-.367-.769-1.164-.769-2.307,0-4.938,4.575-4.938,6.9,0,.811.3,1.331,1.057,1.331a6.483,6.483,0,0,0,3.191-1.622.156.156,0,0,0,.043-.083.091.091,0,0,0-.086-.083c-.022,0-.043.021-.065.021a3.708,3.708,0,0,1-2.437,1.1c-.453,0-.647-.416-.647-1.06,0-.187.022-.416.043-.645,3.17-2.017,5-4.055,5-5.094m-5.973,5.76a.091.091,0,0,0-.086-.083c-.022,0-.043.021-.065.021A6.4,6.4,0,0,1,69.2,26.66c-.3,0-.367-.229-.367-.5a4.752,4.752,0,0,1,.151-.915c0-.146-.194-.146-.194-.146-.151,0-.582.042-.668.146a3.423,3.423,0,0,1-2.35,1.372.341.341,0,0,1-.388-.353c0-.561.906-1.56,2.739-1.6.065,0,.129-.042.129-.083,0-.021-.022-.042-.108-.062a1.259,1.259,0,0,0-.151-.021c-2.35,0-4.119,1.331-4.119,2.1,0,.291.28.52.906.52a5.14,5.14,0,0,0,3.191-1.456,1.858,1.858,0,0,0-.151.665c0,.353.173.707.906.707a6.844,6.844,0,0,0,3.191-1.663c.043.042.043,0,.043-.042m-12.032-.021a.091.091,0,0,0-.086-.083.081.081,0,0,0-.065.021,6.154,6.154,0,0,1-2.631,1.31c-.237,0-.367-.1-.367-.353,0-.6.474-1.164.474-1.331,0-.125-.129-.187-.28-.187-.129,0-.216.021-.431.021a2.872,2.872,0,0,1-.97-.1.162.162,0,0,0-.129-.042c-.043,0-.086.042-.151.187a2.282,2.282,0,0,1-.668.728.188.188,0,0,0-.065.1c0,.021.022.042.065.042a.564.564,0,0,0,.151-.042,1.6,1.6,0,0,0,.345-.27c.043-.042.086-.083.129-.083.173.083.194.083.863.083.237,0,.28.021.28.062a.072.072,0,0,1-.022.042A2.543,2.543,0,0,0,55.7,26.7c0,.25.151.457.625.457,1.013,0,3.235-1.435,3.58-1.747a.219.219,0,0,0,.022-.1m-4.938,0a.091.091,0,0,0-.086-.083c-.022,0-.043.021-.065.021a1.832,1.832,0,0,1-1.143.437.973.973,0,0,1-1.035-1.06c0-.042-.022-.042-.086-.042-.151,0-.755.437-.755.6,0,.042.022.062.022.125a1.713,1.713,0,0,1,.065.52,1.055,1.055,0,0,1-1.143.977.742.742,0,0,1-.841-.749c0-.6.733-1.289,2.156-1.331.065,0,.129-.042.129-.083,0-.021-.022-.042-.108-.062a1.258,1.258,0,0,0-.151-.021c-2.027,0-3.191,1.019-3.191,1.788,0,.624.582.873,1.337.873A3.287,3.287,0,0,0,52.7,26.078a1.6,1.6,0,0,0,.625.125,2.794,2.794,0,0,0,1.6-.769.317.317,0,0,0,.065-.125M47.14,28.219c0,1.643-1.337,3.6-2.544,3.6-.5,0-.668-.27-.668-1.081a14.649,14.649,0,0,1,1.617-4.575,1.961,1.961,0,0,1,1.6,2.059m1.7-3.036a.493.493,0,0,0-.41-.4,8.551,8.551,0,0,1-2.544.6c.927-1.851,1.941-3.7,2.544-4.845a1.206,1.206,0,0,0,.173-.457.339.339,0,0,0-.086-.229c-.129-.125-.431-.52-.518-.52s-.151.083-.259.291c0,0-1.617,3.057-2.954,5.947-.3.042-.647.1-.992.146-.043,0-.216.125-.216.187,0,.042.022.062.108.062h.173c.108,0,.3,0,.733.021A17.7,17.7,0,0,0,43,30.3c0,1.206.625,1.684,1.423,1.684,1.531,0,3.73-1.747,3.73-3.618,0-1.123-.668-2.121-2.48-2.5l.065-.146c1.121-.1,2.243-.166,2.76-.27.259-.042.345-.146.345-.27" transform="translate(-33.728 -15.036)"/></g></g></svg>