<svg xmlns="http://www.w3.org/2000/svg" xmlns:xlink="http://www.w3.org/1999/xlink" width="56" height="30" viewBox="0 0 56 30"><defs><style>.a{fill:#fff;}.b{clip-path:url(#a);}.c,.d{fill:#2b2e34;}.c{stroke:#2b2e34;stroke-width:0.15px;}</style><clipPath id="a"><rect class="a" width="56" height="30" transform="translate(718 5)"/></clipPath></defs><g class="b" transform="translate(-718 -5)"><g transform="translate(718 6.304)"><path class="c" d="M16.424,11.207H17.3L19.432,3.6H18.4l.053-.179H22.35a1.667,1.667,0,0,1,1.88,1.646c0,1.128-1.183,1.951-2.6,2.219V7.3c1.039.055,1.917.537,1.917,1.7,0,1.468-1.736,2.38-3.4,2.38H16.371Zm2.006,0h1.557a2.006,2.006,0,0,0,1.611-.573,3.513,3.513,0,0,0,.752-2.075c0-1.164-.986-1.183-1.9-1.183h-.966Zm1.128-3.981h1.487a2.246,2.246,0,0,0,2.032-2.469c0-.841-.406-1.128-1.181-1.128H20.578Z" transform="translate(-0.754 -1.738)"/><path class="c" d="M33.212,8.583H32.3l.055-.2h.484a2.609,2.609,0,0,0,1.557-.287l-.537,1.626.016.018a3.068,3.068,0,0,1,2.114-1.575c.573,0,.841.321.841.661a.662.662,0,0,1-.662.663h-.019a.455.455,0,0,1-.5-.4.441.441,0,0,1,0-.092,1.1,1.1,0,0,1,.075-.366c0-.091-.055-.126-.181-.126-.626,0-1.7,1.423-1.9,2.032l-.971,3.248H31.657Z" transform="translate(-8.522 -4.111)"/><path class="c" d="M44.779,9.94c.663-1.2,1.057-1.9,1.754-1.9a.581.581,0,0,1,.628.663.57.57,0,0,1-.55.591h-.023a.5.5,0,0,1-.52-.465c0-.126.073-.215.073-.341,0-.034-.018-.071-.055-.071-.108,0-.5.406-1.11,1.522l-1.5,2.737c-1.11,2.006-2.308,4.1-3.92,4.1-.555,0-.949-.3-.949-.813a.642.642,0,0,1,.621-.662h.007a.528.528,0,0,1,.557.5.55.55,0,0,1,0,.094c0,.321-.215.376-.215.518,0,.073.071.126.215.126,1.016,0,2.256-1.809,2.684-2.613l-.644-4.717c-.037-.269-.108-.644-.358-.644-.448,0-.968,1.038-1.11,1.288l-.179-.071c.179-.287.858-1.772,1.933-1.772.679,0,.787.768.86,1.423l.393,3.049h.018Z" transform="translate(-12.052 -4.068)"/><path class="c" d="M57.124.537h-.9l.055-.2h.589A2.906,2.906,0,0,0,58.339,0L55.817,8.448a3.125,3.125,0,0,0-.162.626.313.313,0,0,0,.283.34h.04c.7,0,1.307-.9,1.468-1.128l.16.108a2.723,2.723,0,0,1-1.969,1.341.85.85,0,0,1-.912-.876,4.143,4.143,0,0,1,.234-1.016Z" transform="translate(-20.242)"/><path class="c" d="M65.639,12.554a2.336,2.336,0,0,0-.142.681c0,.215.108.376.323.376.465,0,1.036-.878,1.219-1.128l.126.126c-.179.232-.752,1.307-1.593,1.307-.894,0-.931-.77-.949-1.183h-.016A2.4,2.4,0,0,1,62.8,13.916a2.007,2.007,0,0,1-1.951-2.236,3.908,3.908,0,0,1,3.545-3.6A1.321,1.321,0,0,1,65.68,9.174H65.7l.25-.813h1.016ZM62.794,13.7c1.11,0,1.754-1.057,2.13-2.29a17.565,17.565,0,0,0,.591-1.953A1.2,1.2,0,0,0,64.3,8.294c-1.683,0-2.453,3.347-2.453,4.367.021.7.36,1.038.951,1.038" transform="translate(-23.353 -4.106)"/><path class="c" d="M75.222,8.583h-.813l.045-.2h.268A4.265,4.265,0,0,0,76.4,8.093L75.866,9.9h.018a3.37,3.37,0,0,1,2.6-1.809c.841,0,1.236.466,1.236,1.057s-1.252,3.634-1.252,3.973c0,.215.089.407.3.407.573,0,1.109-.9,1.306-1.147l.126.09c-.268.376-.878,1.362-1.843,1.362-.628,0-.86-.376-.86-.968,0-.813,1.252-3.58,1.252-4.135,0-.269-.142-.429-.5-.429a3.863,3.863,0,0,0-2.758,2.756l-.786,2.7H73.647Z" transform="translate(-29.859 -4.111)"/><path class="c" d="M91.939,12.341a3.182,3.182,0,0,1-2.5,1.575A2.1,2.1,0,0,1,87.38,11.68a3.754,3.754,0,0,1,3.545-3.6c.663,0,1.423.323,1.423,1.146,0,1.016-1.234,1.754-2.719,1.754a2.769,2.769,0,0,1-1-.2,6.755,6.755,0,0,0-.2,1.382c0,.86.268,1.541,1.234,1.541,1.128,0,1.951-1.164,2.185-1.467Zm-1.28-4.046c-1.181,0-1.7,1.36-2,2.29a2.938,2.938,0,0,0,.949.179,1.757,1.757,0,0,0,1.862-1.681.756.756,0,0,0-.721-.789.83.83,0,0,0-.086,0" transform="translate(-36.836 -4.106)"/><path class="d" d="M0,24.276H2.268v6.7h9v-6.7h2.268V39.85H11.269V32.712h-9V39.85H0Z" transform="translate(0 -14.171)"/><path class="d" d="M35.73,33.356a5.366,5.366,0,0,1,5.77,5.672,5.362,5.362,0,0,1-5.77,5.667,5.362,5.362,0,0,1-5.77-5.667,5.366,5.366,0,0,1,5.77-5.672m0,9.769c2.036,0,3.7-1.476,3.7-4.068s-1.668-4.1-3.7-4.1-3.7,1.476-3.7,4.1,1.648,4.068,3.7,4.068" transform="translate(-15.224 -18.785)"/><path class="d" d="M55.35,33.654h1.835v1.6h.034a4.52,4.52,0,0,1,3.837-1.835c1.476,0,2.8.531,3.266,1.835a4.465,4.465,0,0,1,3.733-1.835c2.371,0,3.97.9,3.97,3.133v7.939H70.057V37.358c0-1.333-.4-2.4-2.3-2.4s-3.1,1.1-3.1,2.764v6.739H62.689v-7.1c0-1.4-.492-2.4-2.233-2.4a3.035,3.035,0,0,0-3.168,2.764v6.739H55.32V33.639Z" transform="translate(-28.107 -18.816)"/><path class="d" d="M102.248,40.992c-.531,2.4-2.435,3.7-5.1,3.7-3.8,0-5.6-2.4-5.7-5.7a5.44,5.44,0,0,1,5.238-5.636c.121,0,.243,0,.365,0,4.2,0,5.5,3.571,5.411,6.2H93.547c-.1,1.9,1.067,3.566,3.669,3.566a2.864,2.864,0,0,0,3.1-2.1h1.933Zm-1.913-3.005a3.3,3.3,0,0,0-3.443-3.064,3.251,3.251,0,0,0-3.4,3.064Z" transform="translate(-46.464 -18.782)"/></g></g></svg>