<svg xmlns="http://www.w3.org/2000/svg" xmlns:xlink="http://www.w3.org/1999/xlink" width="56" height="30" viewBox="0 0 56 30"><defs><style>.a{fill:#fff;}.b{clip-path:url(#a);}.c{fill:#2b2e34;}</style><clipPath id="a"><rect class="a" width="56" height="30" transform="translate(788 5)"/></clipPath></defs><g class="b" transform="translate(-788 -5)"><g transform="translate(788 12)"><path class="c" d="M.1,0-3.013,5.563h-.024V0h-2.5V13h2.5V6.331h.024L.007,13H3.028l-3.56-7.17L3.028,0Z" transform="translate(5.542 0.237)"/><path class="c" d="M8.854.35h2.763V-10.94H8.854Z" transform="translate(0.267 12.884)"/><path class="c" d="M0,0V11.314H2.272v-6.8l2.88,6.8H7.914V.024H5.5V6.557l.467,1.3L3,0Z" transform="translate(12.644 1.92)"/><path class="c" d="M37.968.35h2.763V-10.94H37.968Z" transform="translate(1.148 12.884)"/><path class="c" d="M0,0V2.138H3.959l-4,7.085V11.29H6.908V9.2H2.858L6.791,2.115V0Z" transform="translate(42.629 1.943)"/><path class="c" d="M0,0V11.29H5.924V9.2H2.482V6.557H5.737V4.516H2.459V2.138H5.924V0Z" transform="translate(50.076 1.943)"/><path class="c" d="M.111.633C-3.11.633-3.82-1.092-3.726-3.609H-1.05c0,1.247.118,2.277,1.563,2.277a1.312,1.312,0,0,0,1.35-1.486c0-2.349-5.423-2.492-5.423-6.351,0-2.038,1.018-3.644,4.192-3.644,2.7,0,3.954,1.2,3.789,3.907h-2.6c0-.982-.071-1.966-1.3-1.966A1.238,1.238,0,0,0-.837-9.481c0,2.468,5.422,2.253,5.422,6.327C4.609.25,2.1.633.111.633" transform="translate(33.845 12.813)"/><path class="c" d="M.152.175c0-.935-.332-1.534-1.326-1.534-1.634,0-1.61,1.534-1.61,3.692,0,2.8.5,3.427,1.729,3.427A1.769,1.769,0,0,0,.152,5.4V3.578h-1.3V2.044h3.6V7.366a7.4,7.4,0,0,1-3.2.767c-3.788,0-4.38-1.678-4.38-5.944,0-3.14.284-5.729,3.977-5.729,2.368,0,3.742,1.318,3.6,3.667H.152Z" transform="translate(26.25 5.29)"/></g></g></svg>