<svg xmlns="http://www.w3.org/2000/svg" width="55.999" height="21.18" viewBox="0 0 55.999 21.18">
  <g id="Group_7909" data-name="Group 7909" transform="translate(19926 12251)">
    <path id="Path_1811" data-name="Path 1811" d="M19.262,212.163a3.478,3.478,0,0,1,1.5.314,3.369,3.369,0,0,1,1.126.849,3.778,3.778,0,0,1,.707,1.247,4.777,4.777,0,0,1,0,3.028,3.776,3.776,0,0,1-.707,1.247,3.308,3.308,0,0,1-1.126.843,3.81,3.81,0,0,1-3.006,0,3.3,3.3,0,0,1-1.126-.843,3.768,3.768,0,0,1-.707-1.247,4.777,4.777,0,0,1,0-3.028,3.77,3.77,0,0,1,.707-1.247,3.365,3.365,0,0,1,1.126-.849,3.477,3.477,0,0,1,1.5-.314m0,1.069a2.1,2.1,0,0,0-1.032.241,2.025,2.025,0,0,0-.707.644,2.907,2.907,0,0,0-.4.917,4.256,4.256,0,0,0,0,2.1,2.909,2.909,0,0,0,.4.917,2.024,2.024,0,0,0,.707.644,2.331,2.331,0,0,0,2.064,0,2.026,2.026,0,0,0,.707-.644,2.913,2.913,0,0,0,.4-.917,4.256,4.256,0,0,0,0-2.1,2.911,2.911,0,0,0-.4-.917,2.027,2.027,0,0,0-.707-.644,2.1,2.1,0,0,0-1.032-.241" transform="translate(-19938.313 -12449.819)" fill="#2b2e34"/>
    <path id="Path_1812" data-name="Path 1812" d="M55.11,212.993h1.309v4.358q0,.377.037.765a1.737,1.737,0,0,0,.21.7,1.33,1.33,0,0,0,.524.508,2.559,2.559,0,0,0,1.98,0,1.335,1.335,0,0,0,.524-.508,1.751,1.751,0,0,0,.21-.7q.036-.387.036-.765v-4.358h1.309v4.787a3.289,3.289,0,0,1-.22,1.257,2.418,2.418,0,0,1-.624.9,2.593,2.593,0,0,1-.969.539,4.523,4.523,0,0,1-2.514,0,2.6,2.6,0,0,1-.969-.539,2.417,2.417,0,0,1-.623-.9,3.285,3.285,0,0,1-.22-1.257Z" transform="translate(-19969.279 -12450.471)" fill="#2b2e34"/>
    <path id="Path_1813" data-name="Path 1813" d="M89.61,212.993h6.055v1.131H93.287v6.348H91.978v-6.348H89.61Z" transform="translate(-19996.375 -12450.471)" fill="#2b2e34"/>
    <path id="Path_1814" data-name="Path 1814" d="M123.965,212.993h1.309v6.348h3.8v1.131h-5.112Z" transform="translate(-20023.355 -12450.471)" fill="#2b2e34"/>
    <path id="Path_1815" data-name="Path 1815" d="M153.684,212.993h5.384v1.131h-4.075v1.959h3.771v1.069h-3.771v2.189h4.148v1.131h-5.457Z" transform="translate(-20046.695 -12450.471)" fill="#2b2e34"/>
    <path id="Path_1816" data-name="Path 1816" d="M183.354,212.993h6.055v1.131H187.03v6.348h-1.309v-6.348h-2.367Z" transform="translate(-20069.996 -12450.471)" fill="#2b2e34"/>
    <path id="Path_1817" data-name="Path 1817" d="M5.789,163.76a4.908,4.908,0,0,1,.46-.951,3.089,3.089,0,0,1,.687-.794,1.348,1.348,0,0,1,.919-.33.668.668,0,0,1,.3.056.243.243,0,0,1,.12.246.274.274,0,0,1-.039.148c-.016.024-.032.053-.048.081s-.029.052-.04.069a.66.66,0,0,0-.114.179.537.537,0,0,0-.05.231.316.316,0,0,0,.122.263.523.523,0,0,0,.395.117.483.483,0,0,0,.466-.219.785.785,0,0,0,.114-.421.822.822,0,0,0-.065-.326,1,1,0,0,0-.225-.3,1.205,1.205,0,0,0-.367-.24,1.356,1.356,0,0,0-.54-.094,2.387,2.387,0,0,0-1.052.267,3.792,3.792,0,0,0-.967.718,5.076,5.076,0,0,0-.793,1.058,5.4,5.4,0,0,0-.545,1.308l-.133.6H3.253l-.067.246H4.329l-1.315,4.91a7.962,7.962,0,0,1-.875,2.212c-.3.45-.617.678-.943.678a.4.4,0,0,1-.24-.071.208.208,0,0,1-.091-.2.65.65,0,0,1,.057-.291.64.64,0,0,0,.065-.29.324.324,0,0,0-.109-.283.418.418,0,0,0-.265-.067.573.573,0,0,0-.465.184.675.675,0,0,0-.147.424.754.754,0,0,0,.1.409.977.977,0,0,0,.26.259,1.223,1.223,0,0,0,.337.126,2.35,2.35,0,0,0,.331.031,1.755,1.755,0,0,0,1.025-.331,3.419,3.419,0,0,0,.89-.889,6.2,6.2,0,0,0,.715-1.274,12.087,12.087,0,0,0,.511-1.487l1.058-4.049H6.708l.068-.246H5.293l.234-.863c.061-.216.14-.48.262-.8" transform="translate(-19926 -12410.007)" fill="#2b2e34"/>
    <path id="Path_1818" data-name="Path 1818" d="M37.049,184.341c.018-.059.037-.118.059-.178l1.421-4.078.018-.051h-.915l-.858,2.481a4.426,4.426,0,0,1-.46.935,5.339,5.339,0,0,1-.659.859,4.481,4.481,0,0,1-.736.629,1.189,1.189,0,0,1-.676.239.3.3,0,0,1-.274-.124.435.435,0,0,1-.084-.269,1.507,1.507,0,0,1,.045-.286c.038-.149.085-.3.138-.445l1.392-4.019H33.43l-.067.246h1.061l-1.157,3.271c-.038.144-.085.288-.138.431a1.732,1.732,0,0,0-.079.441.857.857,0,0,0,.308.729,1.272,1.272,0,0,0,.765.257l.076,0a1.334,1.334,0,0,0,.652-.159,3.5,3.5,0,0,0,.577-.405,3.991,3.991,0,0,0,.514-.514c.105-.116.2-.229.28-.326q-.046.136-.083.276a1.58,1.58,0,0,0-.047.392.656.656,0,0,0,.25.576,1.119,1.119,0,0,0,.652.159,1.341,1.341,0,0,0,.635-.143,1.461,1.461,0,0,0,.46-.349,2.133,2.133,0,0,0,.283-.408c.056-.1.1-.177.125-.235l.049-.095-.212-.093-.015.036a1.867,1.867,0,0,1-.151.288c-.054.084-.115.163-.179.246l-.08.1a2.1,2.1,0,0,1-.335.3.587.587,0,0,1-.362.131h0A.3.3,0,0,1,37,185.1a.386.386,0,0,1-.07-.225.97.97,0,0,1,.059-.341c.024-.064.045-.129.065-.193" transform="translate(-19951.953 -12424.588)" fill="#2b2e34"/>
    <path id="Path_1819" data-name="Path 1819" d="M65.073,169.658a1.834,1.834,0,0,1-.151.287h0a2.566,2.566,0,0,1-.258.35,2.09,2.09,0,0,1-.335.3.58.58,0,0,1-.347.13h0a.3.3,0,0,1-.215-.091.388.388,0,0,1-.07-.226.969.969,0,0,1,.059-.341c.024-.062.043-.125.062-.187s.038-.122.061-.184l2.844-8.081h-2l-.068.246h1.061L63.065,169.3c-.041.12-.089.268-.14.448a1.655,1.655,0,0,0-.079.457.656.656,0,0,0,.25.576,1.132,1.132,0,0,0,.582.162l.07,0a1.361,1.361,0,0,0,.635-.143,1.462,1.462,0,0,0,.459-.347,1.609,1.609,0,0,0,.284-.41c.074-.134.12-.224.155-.295l.018-.036-.211-.093Z" transform="translate(-19975.354 -12410.125)" fill="#2b2e34"/>
    <path id="Path_1820" data-name="Path 1820" d="M127.247,179.522h0a1.837,1.837,0,0,0-.442-.158,2.587,2.587,0,0,0-.487-.047,2.456,2.456,0,0,0-1.238.36,4.256,4.256,0,0,0-1.091.888,4.575,4.575,0,0,0-.778,1.182,2.887,2.887,0,0,0-.3,1.254,2.288,2.288,0,0,0,.11.627,1.509,1.509,0,0,0,.332.6,1.693,1.693,0,0,0,.585.443,2.1,2.1,0,0,0,.878.173l.081,0a2.005,2.005,0,0,0,.817-.175,2.713,2.713,0,0,0,.626-.407,2.127,2.127,0,0,0,.408-.454,2.367,2.367,0,0,0,.2-.33l.017-.033-.2-.111-.064.081c-.058.072-.131.162-.2.271a2.235,2.235,0,0,1-.366.411,1.73,1.73,0,0,1-.5.349,1.348,1.348,0,0,1-.663.15,1.137,1.137,0,0,1-.82-.312,1.23,1.23,0,0,1-.329-.947,3.329,3.329,0,0,1,.091-.8,5.187,5.187,0,0,1,.2-.722c.044.006.094.009.145.012s.109.007.166.014a3.5,3.5,0,0,0,.405.016c.067,0,.149-.008.253-.018l.137-.013a4.421,4.421,0,0,0,.576-.092,5.161,5.161,0,0,0,.653-.186,2.743,2.743,0,0,0,.61-.3,1.479,1.479,0,0,0,.46-.429,1.072,1.072,0,0,0,.176-.592.723.723,0,0,0-.13-.425,1.109,1.109,0,0,0-.32-.29m-.366.559a1,1,0,0,1-.164.58l-.006.01v0a1.424,1.424,0,0,1-.448.489,2.328,2.328,0,0,1-.67.35,2.359,2.359,0,0,1-.793.137h-.013a3.608,3.608,0,0,1-.568-.039,3.212,3.212,0,0,1,.292-.629,4.884,4.884,0,0,1,.475-.674,2.51,2.51,0,0,1,.609-.533,1.326,1.326,0,0,1,.693-.21.585.585,0,0,1,.448.159.5.5,0,0,1,.143.36" transform="translate(-20022.527 -12424.023)" fill="#2b2e34"/>
    <path id="Path_1821" data-name="Path 1821" d="M152.649,183.563a1.223,1.223,0,0,1-.06.123c-.018.035-.039.075-.062.121a2.284,2.284,0,0,1-.227.348,2.016,2.016,0,0,1-.318.3.687.687,0,0,1-.4.132c-.179,0-.261-.084-.261-.269a2.234,2.234,0,0,1,.076-.5c.027-.116.059-.233.09-.347.023-.082.045-.162.063-.236l1.311-3.645.018-.051h-.915l-.172.5a.683.683,0,0,0-.255-.446.955.955,0,0,0-.643-.209,1.93,1.93,0,0,0-.724.157,4.726,4.726,0,0,0-.825.436,6.319,6.319,0,0,0-.823.652,5.03,5.03,0,0,0-.716.809,4.045,4.045,0,0,0-.5.919,2.662,2.662,0,0,0-.188.971,2.2,2.2,0,0,0,.109.69,1.164,1.164,0,0,0,.288.495,1.26,1.26,0,0,0,.43.287,1.291,1.291,0,0,0,.484.094h.033a1.863,1.863,0,0,0,.717-.143,2.875,2.875,0,0,0,.6-.36,4.589,4.589,0,0,0,.482-.467c.109-.121.222-.246.319-.364q-.03.118-.06.257c0,.044-.01.084-.014.119a1.594,1.594,0,0,0-.017.178c0,.5.285.764.825.764a1.247,1.247,0,0,0,.606-.144,2,2,0,0,0,.456-.33,1.848,1.848,0,0,0,.316-.4l.047-.085c.055-.1.1-.183.138-.257l.017-.034-.226-.113Zm-1.657-3.932a.722.722,0,0,1,.318.074.474.474,0,0,1,.2.173.593.593,0,0,1,.1.218,1.135,1.135,0,0,1,.029.222.991.991,0,0,1-.044.269c-.031.111-.1.292-.2.569l-.632,1.757a2.949,2.949,0,0,1-.275.457h0a4.44,4.44,0,0,1-.506.6,3,3,0,0,1-.657.5,1.419,1.419,0,0,1-.693.211.507.507,0,0,1-.459-.229,1,1,0,0,1-.149-.6,3.045,3.045,0,0,1,.107-.779,5.76,5.76,0,0,1,.307-.906,7.776,7.776,0,0,1,.476-.937,5.59,5.59,0,0,1,.6-.813,3.088,3.088,0,0,1,.7-.579,1.547,1.547,0,0,1,.754-.211h.021" transform="translate(-20041.537 -12424.076)" fill="#2b2e34"/>
    <path id="Path_1822" data-name="Path 1822" d="M182.334,184.331c.018-.056.035-.113.056-.169l1.421-4.078.018-.051h-.915l-.858,2.481a4.4,4.4,0,0,1-.46.935,5.36,5.36,0,0,1-.659.859,4.481,4.481,0,0,1-.737.629,1.191,1.191,0,0,1-.675.239.312.312,0,0,1-.275-.124.438.438,0,0,1-.084-.269,1.462,1.462,0,0,1,.045-.286,4.544,4.544,0,0,1,.138-.445l1.392-4.02h-2.06l-.067.246h1.061l-1.157,3.272a4.5,4.5,0,0,1-.138.431,1.767,1.767,0,0,0-.079.441.857.857,0,0,0,.309.729,1.272,1.272,0,0,0,.765.257l.076,0a1.369,1.369,0,0,0,.652-.159,3.506,3.506,0,0,0,.577-.405,4,4,0,0,0,.513-.514c.13-.143.246-.282.334-.392-.04.113-.075.228-.105.342a1.557,1.557,0,0,0-.047.392.656.656,0,0,0,.25.576,1.123,1.123,0,0,0,.652.16,1.347,1.347,0,0,0,.636-.143,1.457,1.457,0,0,0,.459-.348,1.616,1.616,0,0,0,.284-.409c.055-.1.093-.174.122-.231l.033-.063.019-.036-.213-.093-.015.036a1.845,1.845,0,0,1-.151.288c-.053.084-.114.162-.178.245l-.08.1a2.092,2.092,0,0,1-.335.3.586.586,0,0,1-.362.131h0a.3.3,0,0,1-.215-.092.386.386,0,0,1-.071-.226.964.964,0,0,1,.059-.341c.026-.067.047-.134.068-.2" transform="translate(-20066.025 -12424.586)" fill="#2b2e34"/>
    <path id="Path_1823" data-name="Path 1823" d="M210.945,180.2c.057-.1.1-.181.127-.24l.047-.091-.212-.093-.015.036a1.824,1.824,0,0,1-.152.288,2.537,2.537,0,0,1-.258.349,2.207,2.207,0,0,1-.35.3.637.637,0,0,1-.383.131.309.309,0,0,1-.259-.093.409.409,0,0,1-.084-.271,1.074,1.074,0,0,1,.059-.372c.023-.062.043-.125.062-.187s.038-.122.061-.184l1.366-3.789h1.314l.067-.246H211.03l.432-1.174h-.946l-.433,1.174H209l-.067.246h1.077l-1.157,3.207c-.06.168-.123.356-.186.557a1.933,1.933,0,0,0-.093.552.766.766,0,0,0,.246.57,1,1,0,0,0,.634.227l.069,0a1.449,1.449,0,0,0,1.127-.491,2.234,2.234,0,0,0,.3-.408Z" transform="translate(-20089.801 -12420.297)" fill="#2b2e34"/>
    <path id="Path_1824" data-name="Path 1824" d="M226.252,179.233h-.014a.905.905,0,0,0-.4.1,1.2,1.2,0,0,0-.318.239,1.251,1.251,0,0,0-.236.33,2.589,2.589,0,0,0-.2.358l-1.771,3.2.023-.126c.037-.2.079-.425.12-.686a8.59,8.59,0,0,0,.092-1.365,3.315,3.315,0,0,0-.062-.657,2.927,2.927,0,0,0-.219-.657,1.431,1.431,0,0,0-.413-.508,1.056,1.056,0,0,0-.67-.208h-.025a.912.912,0,0,0-.539.177,1.287,1.287,0,0,0-.366.414,2.431,2.431,0,0,0-.22.518c-.036.132-.063.258-.087.369l-.029.131.241.066.01-.036c.012-.043.024-.09.038-.141.02-.078.042-.166.071-.261a2.79,2.79,0,0,1,.167-.458,1.389,1.389,0,0,1,.258-.378.414.414,0,0,1,.34-.156.222.222,0,0,1,.17.09,1.112,1.112,0,0,1,.164.434,7.205,7.205,0,0,1,.122.907c.031.4.046.913.046,1.526a8.2,8.2,0,0,1-.2,1.845,9.417,9.417,0,0,1-.507,1.6,5.04,5.04,0,0,1-.678,1.124.893.893,0,0,1-.666.414.4.4,0,0,1-.268-.071.214.214,0,0,1-.092-.187.6.6,0,0,1,.014-.172,1.054,1.054,0,0,1,.044-.118c.008-.016.016-.035.024-.055s.014-.038.025-.059a.416.416,0,0,0,.017-.163.3.3,0,0,0-.107-.25.426.426,0,0,0-.271-.085.9.9,0,0,0-.407.115.489.489,0,0,0-.2.447.789.789,0,0,0,.294.635,1.253,1.253,0,0,0,.713.224h.05a1.153,1.153,0,0,0,.592-.176,2.836,2.836,0,0,0,.534-.455,4.335,4.335,0,0,0,.482-.638,8.572,8.572,0,0,0,.434-.744l.695-1.3,2.193-3.985a4.87,4.87,0,0,1,.43-.661.477.477,0,0,1,.283-.2.118.118,0,0,1,.095.016.132.132,0,0,1,.032.1.2.2,0,0,1-.052.143.3.3,0,0,0-.07.225.236.236,0,0,0,.268.254.583.583,0,0,0,.415-.151.539.539,0,0,0,.15-.4.527.527,0,0,0-.119-.353.546.546,0,0,0-.432-.149" transform="translate(-20098.195 -12423.955)" fill="#2b2e34"/>
    <path id="Path_1825" data-name="Path 1825" d="M101.514,151.087h0a.611.611,0,0,0,.116-.314.592.592,0,0,0-.033-.232.743.743,0,0,0-.145-.242.656.656,0,0,0-.261-.2,1.112,1.112,0,0,0-.382-.095,1.559,1.559,0,0,0-.635.063,2.331,2.331,0,0,0-.814.5,3.553,3.553,0,0,0-.625.656,4.843,4.843,0,0,0-.56,1.043l-.309.834-2.178,6.145a3.474,3.474,0,0,0-.171.562,2.84,2.84,0,0,0-.078.563,1.387,1.387,0,0,0,.143.667,1.4,1.4,0,0,0,.349.445,1.3,1.3,0,0,0,.462.254,1.851,1.851,0,0,0,.492.079,2.56,2.56,0,0,0,.784-.157,5.284,5.284,0,0,0,.841-.421,6.081,6.081,0,0,0,.809-.637,5.6,5.6,0,0,0,.685-.793,4.234,4.234,0,0,0,.483-.9,2.653,2.653,0,0,0,.188-.971,1.919,1.919,0,0,0-.094-.616,1.715,1.715,0,0,0-.3-.523,1.875,1.875,0,0,0-.49-.364,1.547,1.547,0,0,0-1.3,0,2.933,2.933,0,0,0-.548.345,3.339,3.339,0,0,0-.468.468,4.222,4.222,0,0,0-.264.341l1.8-5.061.122-.356a4.586,4.586,0,0,1,.231-.584,3.135,3.135,0,0,1,.367-.658,2.418,2.418,0,0,1,.489-.549.657.657,0,0,1,.528-.19.487.487,0,0,1,.219.058c.048.019.067.065.067.165a.254.254,0,0,1-.024.1.332.332,0,0,0-.04.056.285.285,0,0,1-.038.053c-.014.021-.025.039-.035.056s-.024.041-.041.065a.3.3,0,0,0-.053.178.278.278,0,0,0,.085.191.394.394,0,0,0,.285.106.348.348,0,0,0,.348-.134M96.3,159.955a7.838,7.838,0,0,1,.338-.952,7.54,7.54,0,0,1,.491-.921,6.584,6.584,0,0,1,.613-.783l.016-.017a3.14,3.14,0,0,1,.656-.533,1.264,1.264,0,0,1,.661-.21.815.815,0,0,1,.557.173.735.735,0,0,1,.206.544,3.608,3.608,0,0,1-.121.856,6.36,6.36,0,0,1-.322.952A7.832,7.832,0,0,1,98.9,160a5.679,5.679,0,0,1-.614.814,2.935,2.935,0,0,1-.687.564,1.425,1.425,0,0,1-.706.211c-.475,0-.7-.243-.718-.764a3.731,3.731,0,0,1,.122-.871" transform="translate(-20000.951 -12401)" fill="#2b2e34"/>
    <path id="Path_1826" data-name="Path 1826" d="M81.367,169.658a1.854,1.854,0,0,1-.151.287h0a2.561,2.561,0,0,1-.259.35,2.114,2.114,0,0,1-.335.3.579.579,0,0,1-.347.13h0a.3.3,0,0,1-.215-.091.386.386,0,0,1-.07-.226.969.969,0,0,1,.059-.341c.024-.066.045-.131.065-.2s.036-.117.057-.175l2.844-8.081h-2l-.067.246h1.061l-2.654,7.44c-.047.141-.092.281-.139.448a1.648,1.648,0,0,0-.079.457.657.657,0,0,0,.25.576,1.128,1.128,0,0,0,.582.162l.07,0a1.361,1.361,0,0,0,.635-.143,1.458,1.458,0,0,0,.459-.347,1.6,1.6,0,0,0,.284-.41c.056-.1.095-.177.124-.235l.05-.1-.212-.093Z" transform="translate(-19988.15 -12410.125)" fill="#2b2e34"/>
    <path id="Path_1827" data-name="Path 1827" d="M255.373,170.5a.662.662,0,1,0,.662.658.664.664,0,0,0-.662-.658m0,1.211a.548.548,0,0,1,0-1.1h0a.537.537,0,0,1,.543.544v0a.542.542,0,0,1-.545.549" transform="translate(-20126.035 -12417.102)" fill="#2b2e34"/>
    <path id="Path_1828" data-name="Path 1828" d="M257.093,172.079v0a.2.2,0,0,0-.061-.146.3.3,0,0,0-.215-.078H256.5v.708h.156v-.245h.121l.187.245h.195l-.213-.275a.212.212,0,0,0,.149-.206m-.159,0c0,.063-.064.086-.124.086h-.155V172h.161c.074,0,.118.03.118.085" transform="translate(-20127.439 -12418.16)" fill="#2b2e34"/>
  </g>
</svg>
