<svg xmlns="http://www.w3.org/2000/svg" xmlns:xlink="http://www.w3.org/1999/xlink" width="56" height="30" viewBox="0 0 56 30"><defs><style>.a{fill:#fff;}.b{clip-path:url(#a);}.c{opacity:0.85;}.d{fill:#2b2e34;}</style><clipPath id="a"><rect class="a" width="56" height="30" transform="translate(71 5)"/></clipPath></defs><g class="b" transform="translate(-71 -5)"><g class="c" transform="translate(77 10)"><path class="d" d="M2.891,6.491a2.735,2.735,0,0,1-2.125-.87A3.543,3.543,0,0,1,0,3.234,3.486,3.486,0,0,1,.774.867,2.741,2.741,0,0,1,2.891,0C4.688,0,5.8,1.239,5.8,3.234a3.516,3.516,0,0,1-.777,2.388A2.767,2.767,0,0,1,2.891,6.491Zm0-6.049a1.092,1.092,0,0,0-1.078.637,5.058,5.058,0,0,0-.321,2.155A5.157,5.157,0,0,0,1.8,5.4a1.093,1.093,0,0,0,1.087.628h.046A1.053,1.053,0,0,0,3.988,5.4a5.309,5.309,0,0,0,.3-2.161A5.156,5.156,0,0,0,3.978,1.07,1.093,1.093,0,0,0,2.891.442Z" transform="translate(12.136 2.536)"/><path class="d" d="M5.621,6.515A1.993,1.993,0,0,1,3.969,5.7a1.876,1.876,0,0,1-1.514.768A2.178,2.178,0,0,1,.7,5.534,3.922,3.922,0,0,1,0,3.187C0,1.311,1.028,0,2.5,0A1.723,1.723,0,0,1,3.762.535V.14H5.254V4.63c0,.834.293,1.256.872,1.256.526,0,1.171-.561,1.606-1.4a.4.4,0,0,0,.344.186A2.856,2.856,0,0,1,5.621,6.515ZM2.776.558a1.065,1.065,0,0,0-.935.683,4.193,4.193,0,0,0-.35,1.853,4.979,4.979,0,0,0,.353,2.05,1.086,1.086,0,0,0,.955.742h.033A.833.833,0,0,0,3.517,5.5a1.7,1.7,0,0,0,.268-.966V2A1.841,1.841,0,0,0,3.513.948.868.868,0,0,0,2.776.558Z" transform="translate(28.884 2.49)"/><path class="d" d="M7.364,4.281c-.5.977-1.17,1.582-1.721,1.582-.528,0-.8-.419-.8-1.233v-2.7A1.779,1.779,0,0,0,4.405.489,1.967,1.967,0,0,0,3.051,0,2.1,2.1,0,0,0,1.377.745V.116H0V6.328H1.4V2.094C1.4,1.14,1.881.558,2.615.558c.574,0,.826.372.826,1.21V4.607c0,1.233.574,1.861,1.767,1.861,1.009,0,1.789-.6,2.569-1.954a.656.656,0,0,1-.413-.233" transform="translate(36.547 2.559)"/><path class="d" d="M1.468,6.538V2.466c0-1,.39-1.559,1.078-1.559.574,0,.849.4.849,1.233v4.4H4.864V2.466c0-1.047.39-1.605,1.078-1.605.6,0,.872.419.872,1.349V4.49c0,.977.046,1.233.321,1.582a1.855,1.855,0,0,0,1.445.651A3.121,3.121,0,0,0,11.2,4.909l-.39-.256C10.37,5.491,9.8,5.979,9.2,5.979c-.619,0-.918-.419-.918-1.3V2.141a1.726,1.726,0,0,0-.413-1.4A2.033,2.033,0,0,0,6.424.186,2.162,2.162,0,0,0,4.7,1,2.566,2.566,0,0,0,2.546,0,2.447,2.447,0,0,0,.229,1.14,3.862,3.862,0,0,0,0,2.49V6.515Z" transform="translate(18.996 2.536)"/><path class="d" d="M9.681,2.722V6.771c0,1-.39,1.559-1.078,1.559-.574,0-.849-.4-.849-1.233V2.722H6.286V6.771c0,1.024-.39,1.605-1.078,1.605-.6,0-.849-.419-.849-1.349V2.21c0-.977-.046-1.233-.321-1.582A1.8,1.8,0,0,0,2.592,0,3.045,3.045,0,0,0,0,1.815l.39.233C.826,1.21,1.4.721,2,.721c.619,0,.918.419.918,1.3V7.1a1.726,1.726,0,0,0,.413,1.4,1.98,1.98,0,0,0,1.445.535,2.208,2.208,0,0,0,1.721-.791,2.54,2.54,0,0,0,2.133.977,2.375,2.375,0,0,0,2.294-1.14,3.862,3.862,0,0,0,.229-1.349v-4Z" transform="translate(0 0)"/><path class="d" d="M9.682,6.794c0,1-.39,1.559-1.078,1.559-.574,0-.849-.4-.849-1.233V2.745H6.286V6.794C6.286,7.817,5.9,8.4,5.208,8.4c-.6,0-.849-.419-.849-1.349V2.21c0-.977-.046-1.233-.321-1.582A1.8,1.8,0,0,0,2.592,0,3.045,3.045,0,0,0,0,1.815l.39.256A2.007,2.007,0,0,1,2,.745c.619,0,.918.419.918,1.3V7.119c0,.745.069,1.047.413,1.4a1.981,1.981,0,0,0,1.445.535A2.208,2.208,0,0,0,6.493,8.26a2.541,2.541,0,0,0,2.134.977A2.375,2.375,0,0,0,10.921,8.1a3.863,3.863,0,0,0,.229-1.349v-4H9.682Z" transform="translate(2.099 10.763)"/><path class="d" d="M3.418,7.469c-.665,0-.987-.489-.987-1.536V2.21H3.441A1.544,1.544,0,0,1,3.4,1.954,2.114,2.114,0,0,1,3.441,1.7H2.432V0L.964.023V1.7H0a1.539,1.539,0,0,1,.046.256A2.1,2.1,0,0,1,0,2.21H.964V5.956a.487.487,0,0,0,.39.186,4.03,4.03,0,0,1-.344.628,1.577,1.577,0,0,0,.321.651,1.938,1.938,0,0,0,1.514.6A2.638,2.638,0,0,0,5.231,6.677V5.817c-.55,1.14-1.147,1.652-1.812,1.652" transform="translate(17.7 11.74)"/><path class="d" d="M7.64,7.143C7.2,8.05,6.63,8.585,6.011,8.585c-.6,0-.826-.349-.826-1.349V4.49c0-.675-.092-.954-.459-1.256a2.241,2.241,0,0,0-1.514-.489,2.461,2.461,0,0,0-1.744.675V0H0V7.026C.023,7,.023,6.98.046,6.957c.138.14.184.14.39.163A6.058,6.058,0,0,1,0,7.887V9.12H1.468V4.932c0-.977.482-1.582,1.262-1.582.665,0,.987.419.987,1.28V7.422A1.632,1.632,0,0,0,5.552,9.19,2.551,2.551,0,0,0,7.686,7.934a2.9,2.9,0,0,1-.046-.465Z" transform="translate(22.954 10.554)"/><path class="d" d="M.046,0C.023.023.023.047,0,.07V.931C.138.7.3.442.436.163A.5.5,0,0,1,.046,0" transform="translate(22.931 17.51)"/><path class="d" d="M7.365,4.3c-.5.977-1.17,1.582-1.721,1.582-.528,0-.8-.419-.8-1.233V1.931A1.778,1.778,0,0,0,4.405.489,1.864,1.864,0,0,0,3.051,0,2.1,2.1,0,0,0,1.377.745V.116H0V4.467c.023-.047.023-.07.046-.116a.487.487,0,0,0,.39.186A5.055,5.055,0,0,1,0,5.328v.977H1.4V2.117c0-.954.482-1.536,1.216-1.536.574,0,.826.372.826,1.21V4.607c0,1.233.574,1.861,1.767,1.861,1.009,0,1.789-.6,2.57-1.955A.594.594,0,0,1,7.365,4.3" transform="translate(34.448 13.322)"/><path class="d" d="M.941,1.885A.932.932,0,0,0,1.859.931.927.927,0,0,0,.941,0,.947.947,0,0,0,0,.931a.952.952,0,0,0,.941.954" transform="translate(14.671 10.135)"/><path class="d" d="M3.877,4.281c-.413.931-.941,1.443-1.537,1.443-.642,0-.872-.372-.872-1.4V0H0V4.583A1.626,1.626,0,0,0,1.835,6.328,2.436,2.436,0,0,0,3.946,5.072a3.051,3.051,0,0,1-.069-.721Z" transform="translate(14.786 13.462)"/><path class="d" d="M.01,0h0V.116A3.343,3.343,0,0,0,.079.838Q.251.559.423.209A.6.6,0,0,1,.01,0" transform="translate(18.676 17.72)"/><path class="d" d="M.941,1.885A.932.932,0,0,0,1.858.931.927.927,0,0,0,.941,0,.947.947,0,0,0,0,.931a.967.967,0,0,0,.941.954" transform="translate(30.456 10.135)"/><path class="d" d="M2.34,5.7c-.642,0-.872-.372-.872-1.4V0H0V4.234c0-.023.023-.023.023-.047a.678.678,0,0,0,.413.186,4.643,4.643,0,0,1-.367.675,1.606,1.606,0,0,0,1.789,1.28,2.341,2.341,0,0,0,2-1.094V4.374C3.441,5.235,2.89,5.7,2.34,5.7" transform="translate(30.593 13.462)"/><path class="d" d="M.023,0C.023.023,0,.023,0,.047V.4A2.874,2.874,0,0,0,.046.861,4.665,4.665,0,0,0,.413.186.561.561,0,0,1,.023,0" transform="translate(30.593 17.65)"/><path class="d" d="M.046,0C.023.047.023.07,0,.116V.977A5.036,5.036,0,0,0,.436.186.522.522,0,0,1,.046,0" transform="translate(34.425 17.72)"/></g></g></svg>