<svg xmlns="http://www.w3.org/2000/svg" xmlns:xlink="http://www.w3.org/1999/xlink" width="56" height="30" viewBox="0 0 56 30"><defs><style>.a{fill:#fff;}.b{clip-path:url(#a);}.c{fill:#2b2e34;stroke:#2b2e34;stroke-width:0.15px;}</style><clipPath id="a"><rect class="a" width="56" height="30" transform="translate(228 5)"/></clipPath></defs><g class="b" transform="translate(-228 -5)"><g transform="translate(228.25 13)"><path class="c" d="M51.975,13.144h.161a.888.888,0,0,1,.1-.2.256.256,0,0,1,.222-.078,1.417,1.417,0,0,1,.444.1,3.837,3.837,0,0,0,.484.176,3.189,3.189,0,0,0,.343.1c.1.019.2.039.323.059a1.833,1.833,0,0,0,.343.039c.121,0,.262.019.423.019a2.8,2.8,0,0,0,2.117-.917,2.577,2.577,0,0,0,.564-.956,3.147,3.147,0,0,0,.2-1.151,2.37,2.37,0,0,0-.222-1.073,1.671,1.671,0,0,0-.544-.663,2.467,2.467,0,0,0-.645-.39c-.222-.078-.4-.156-.544-.2l-1.371-.488c-.2-.078-.383-.137-.585-.234a2.94,2.94,0,0,1-.524-.332,1.546,1.546,0,0,1-.383-.488,1.513,1.513,0,0,1-.141-.7,1.733,1.733,0,0,1,.181-.839,2.052,2.052,0,0,1,.464-.546,1.73,1.73,0,0,1,.6-.293,2.347,2.347,0,0,1,.6-.078,1.926,1.926,0,0,1,.847.2,2.275,2.275,0,0,1,.625.527,2.349,2.349,0,0,1,.423.761,4.669,4.669,0,0,1,.222.878h.121V4.057h-.161c-.06.117-.1.2-.141.215-.04.039-.1.039-.2.039a.71.71,0,0,1-.323-.078c-.1-.059-.222-.117-.343-.176a3.8,3.8,0,0,0-.464-.176,2.213,2.213,0,0,0-.665-.078,2.89,2.89,0,0,0-1.008.2,2.5,2.5,0,0,0-.786.566,2.544,2.544,0,0,0-.5.839,3.079,3.079,0,0,0-.181,1.073,2.081,2.081,0,0,0,.464,1.4,3.377,3.377,0,0,0,1.391.839l1.31.449a3.57,3.57,0,0,1,.5.215,2,2,0,0,1,.887.917,1.776,1.776,0,0,1,.141.761,2.782,2.782,0,0,1-.1.663,1.581,1.581,0,0,1-.323.663,2.255,2.255,0,0,1-.6.527,2.112,2.112,0,0,1-.988.2,3.851,3.851,0,0,1-.464-.02,2.736,2.736,0,0,1-.524-.1,1.851,1.851,0,0,1-.524-.253,1.959,1.959,0,0,1-.5-.488,2.881,2.881,0,0,1-.423-.78,4.908,4.908,0,0,1-.323-1.17h-.02v2.789h.02ZM50.523,7.372h.3l.242-4.017a1.338,1.338,0,0,0,.02-.273V2.79a1.791,1.791,0,0,0-.081-.507.312.312,0,0,0-.323-.2.3.3,0,0,0-.323.2,1.223,1.223,0,0,0-.081.507v.293a1.337,1.337,0,0,0,.02.273Zm-8.608,5.772H44.6v-.176h-1.27V4.779h.02l4.778,8.561h.222V4.233h1.27V4.057H46.935v.176H48.2V11l-.02-.019L44.334,4.038H41.895v.175h1.27v8.736h-1.27l.02.2Zm-7.681,0h2.439v-.176H35.4L36.593,9.42h2.641l1.189,3.549h-1.27v.176h3.488v-.176H41.633L38.568,3.823h-.282l-3.064,9.146H34.214l.02.176Zm4.939-3.9h-2.5l1.25-3.725Zm-13.547,3.9h2.7v-.176h-1.27V4.408h.02l2.7,8.756L32.5,4.311h.02v8.639H31.25v.176H34.9v-.176h-1.27V4.233H34.9V4.057H32.4l-2.1,6.864-.02-.02-2.1-6.845h-2.56v.176H26.9v8.736h-1.27v.176Zm-7.741,0h2.439v-.176h-1.27L20.243,9.42h2.641l1.189,3.549H22.8v.176h3.508v-.176H25.3L22.239,3.823h-.282l-3.064,9.146H17.884v.176Zm4.939-3.9h-2.48l1.25-3.725ZM11.635,10.375a5.092,5.092,0,0,0,.827,1.521,3.963,3.963,0,0,0,1.25,1.053,3.253,3.253,0,0,0,3.125-.019,4.305,4.305,0,0,0,1.25-1.073,5.638,5.638,0,0,0,.847-1.521,5.188,5.188,0,0,0,.3-1.755,5.27,5.27,0,0,0-.343-1.892,5.082,5.082,0,0,0-.887-1.5,3.845,3.845,0,0,0-1.27-.995A3.189,3.189,0,0,0,15.3,3.823a2.863,2.863,0,0,0-1.391.371,5.058,5.058,0,0,0-1.27.995,5.394,5.394,0,0,0-.907,1.5,4.877,4.877,0,0,0-.363,1.892,4.911,4.911,0,0,0,.262,1.794m1.129-3.491a5.214,5.214,0,0,1,.383-1.463,2.479,2.479,0,0,1,.806-1.034A2.184,2.184,0,0,1,15.284,4a2.184,2.184,0,0,1,1.331.39,2.652,2.652,0,0,1,.806,1.034A4.61,4.61,0,0,1,17.8,6.885a15.368,15.368,0,0,1,.1,1.7,11.8,11.8,0,0,1-.141,2.009,4.8,4.8,0,0,1-.444,1.424,2.04,2.04,0,0,1-.827.858,2.648,2.648,0,0,1-1.23.293,2.43,2.43,0,0,1-1.23-.293,2.006,2.006,0,0,1-.806-.858,4.431,4.431,0,0,1-.444-1.424,11.8,11.8,0,0,1-.141-2.009q.03-.878.121-1.7M2.2,13.144H6.837V12.93H5.244V7.08H6.7c.161,0,.363.02.585.039a1.779,1.779,0,0,1,.645.254,1.57,1.57,0,0,1,.544.663A2.978,2.978,0,0,1,8.752,9.3l.1,1.482c.04.41.081.761.141,1.073a2.156,2.156,0,0,0,.343.78,1.614,1.614,0,0,0,.6.488,2.269,2.269,0,0,0,.968.156,3.511,3.511,0,0,0,.5-.039,2.522,2.522,0,0,0,.343-.1A2.592,2.592,0,0,0,12,13.008c.06-.059.121-.1.161-.137l-.121-.176a.933.933,0,0,1-.363.254.962.962,0,0,1-.383.078.646.646,0,0,1-.6-.332,3.777,3.777,0,0,1-.282-.761,4.957,4.957,0,0,1-.081-.683c-.02-.273-.04-.546-.04-.839-.02-.293-.04-.566-.06-.839a3.818,3.818,0,0,0-.121-.741,2.05,2.05,0,0,0-.484-.9,3.081,3.081,0,0,0-.766-.566,2.9,2.9,0,0,0-.806-.293c-.262-.058-.464-.1-.625-.117V6.924a2.936,2.936,0,0,0,1.331-.449,3.335,3.335,0,0,0,.766-.722,2.008,2.008,0,0,0,.343-.78,2.623,2.623,0,0,0,.081-.624,3.337,3.337,0,0,0-.2-1.034A2.335,2.335,0,0,0,9.014,2.3,2.368,2.368,0,0,0,7.8,1.7a10.985,10.985,0,0,0-1.492-.1,2.021,2.021,0,0,0-.343.02,2.021,2.021,0,0,1-.343.019,1.016,1.016,0,0,0-.343.02H2.2v.215H3.793V12.949H2.2ZM5.224,1.854a2.87,2.87,0,0,1,.444-.039c.161,0,.343-.02.524-.02a5.1,5.1,0,0,1,.766.078,1.492,1.492,0,0,1,.685.332,1.829,1.829,0,0,1,.5.761,4.116,4.116,0,0,1,.181,1.346,5.178,5.178,0,0,1-.121,1.229,1.7,1.7,0,0,1-.363.761,1.1,1.1,0,0,1-.564.39,2.21,2.21,0,0,1-.746.117H5.2l.02-4.953Z" transform="translate(-2.2 -1.6)"/></g></g></svg>