<svg xmlns="http://www.w3.org/2000/svg" xmlns:xlink="http://www.w3.org/1999/xlink" width="56" height="30" viewBox="0 0 56 30"><defs><style>.a{fill:#fff;}.b{clip-path:url(#a);}.c,.d{fill:#2b2e34;stroke:#2b2e34;stroke-width:0.15px;}.d{stroke-miterlimit:10;}</style><clipPath id="a"><rect class="a" width="56" height="30" transform="translate(368 5)"/></clipPath></defs><g class="b" transform="translate(-368 -5)"><g transform="translate(368.25 9)"><path class="c" d="M1.311.206H0V0H3.933V.206H2.622V8.791H4.278c2.484,0,3.243-.343,3.243-2.747h.207V9.066H.069V8.86H1.38L1.311.206Z" transform="translate(0 10.989)"/><path class="d" d="M4.211,9.8A3.972,3.972,0,0,1,1.276,8.392,5.251,5.251,0,0,1,0,4.9a5.285,5.285,0,0,1,1.249-3.49A3.916,3.916,0,0,1,4.211,0,3.971,3.971,0,0,1,7.145,1.412,5.252,5.252,0,0,1,8.421,4.9a5.251,5.251,0,0,1-1.276,3.49A3.972,3.972,0,0,1,4.211,9.8Zm0-9.59C3.2.214,1.5.823,1.5,4.9S3.2,9.59,4.211,9.59,6.923,8.981,6.923,4.9,5.224.214,4.211.214Z" transform="translate(9.206 10.62)"/><path class="c" d="M1.449.618h0V8.1c0,.618.207.687.828.687H2.76v.275H0V8.86H.414c.621,0,.828-.137.828-.687V.206H0V0H2.691l4.9,6.731h0V.893c0-.549-.069-.687-.69-.687H6.279V0H8.97V.206H8.418c-.552,0-.69.137-.69.687V9.134H7.59Z" transform="translate(18.655 10.989)"/><path class="d" d="M4.139,9.378H0V9.164H1.285V.214H0V0H4.139A4.222,4.222,0,0,1,7.761,1.678a5.25,5.25,0,0,1,.946,3.011C8.707,7.581,6.957,9.378,4.139,9.378ZM2.64.214v8.95H3.783a3.2,3.2,0,0,0,2.168-.719A4.791,4.791,0,0,0,7.208,4.689C7.208,2.768,6.8.214,3.283.214Z" transform="translate(27.975 10.883)"/><path class="d" d="M4.211,9.8A3.972,3.972,0,0,1,1.276,8.392,5.251,5.251,0,0,1,0,4.9a5.285,5.285,0,0,1,1.249-3.49A3.916,3.916,0,0,1,4.211,0,3.971,3.971,0,0,1,7.145,1.412,5.252,5.252,0,0,1,8.421,4.9a5.251,5.251,0,0,1-1.276,3.49A3.972,3.972,0,0,1,4.211,9.8Zm0-9.59C3.2.214,1.5.823,1.5,4.9a8.294,8.294,0,0,0,.446,3.01A2.326,2.326,0,0,0,4.211,9.59c1.013,0,2.712-.609,2.712-4.688S5.224.214,4.211.214Z" transform="translate(37.74 10.62)"/><path class="c" d="M1.449.618h0V8.1c0,.618.207.687.828.687H2.76v.275H0V8.86H.414c.621,0,.828-.137.828-.687V.206H0V0H2.691l4.9,6.731h0V.893c0-.549-.069-.687-.69-.687H6.279V0H8.97V.206H8.418c-.552,0-.69.137-.69.687V9.134H7.59Z" transform="translate(46.53 10.989)"/><path class="c" d="M1.173.206H.069V0h6.9l.138,2.2H6.9C6.9.687,5.934.206,4.554.206h-2V4.327h.966c1.38,0,1.449-.824,1.449-1.648h.207V6.113H4.968c0-.962-.138-1.58-1.518-1.58H2.415V8.86H4.209c2.07,0,3.1-.206,3.1-2.4h.207v2.61H0V8.86H1.1V.206Z" transform="translate(8.763 0.206)"/><path class="c" d="M.138,6.113H.345c0,2.129,1.311,3.159,2.829,3.159A1.98,1.98,0,0,0,5.313,7.349c0-1.374-.69-1.717-2.139-1.992C1.1,5.014.207,4.739.207,2.541A2.387,2.387,0,0,1,2.622,0C3.933,0,4.485.824,4.9.824c.207,0,.276-.275.276-.481h.207V3.022H5.175C5.037,1.511,4.278.206,2.553.206A1.754,1.754,0,0,0,.69,2.129C.69,3.3,1.1,3.571,3.243,3.915c1.863.343,2.622.962,2.622,2.61A2.673,2.673,0,0,1,3.036,9.478c-1.311,0-2-.687-2.484-.687-.345,0-.345.343-.345.549H0V6.113Z" transform="translate(17.732 0)"/><path class="c" d="M0,6.113H.207c0,2.129,1.311,3.159,2.829,3.159A1.98,1.98,0,0,0,5.175,7.349c0-1.374-.69-1.717-2.139-1.992-2-.343-2.967-.618-2.967-2.816A2.387,2.387,0,0,1,2.484,0C3.795,0,4.347.824,4.761.824c.276,0,.345-.343.414-.481h.207V3.022H5.175C5.037,1.58,4.278.206,2.553.206A1.754,1.754,0,0,0,.69,2.129C.69,3.3,1.1,3.571,3.243,3.915c1.863.343,2.622.962,2.622,2.61A2.708,2.708,0,0,1,3.036,9.478c-1.311,0-2-.687-2.484-.687-.345,0-.345.343-.345.549H0V6.113Z" transform="translate(25.046 0)"/><path class="c" d="M1.173.206H0V0H3.657V.206H2.484V8.86H3.657v.206H0V8.86H1.173Z" transform="translate(31.808 0.206)"/><path class="c" d="M7.107,3.091H6.9A2.955,2.955,0,0,0,4.071.137C1.794.137,1.449,2.953,1.449,4.67S1.794,9.2,4.071,9.2A3.1,3.1,0,0,0,6.9,6.044h.207V9.066H6.9c0-.275-.138-.618-.414-.618-.414,0-1.035,1.03-2.415,1.03C1.932,9.478,0,7.417,0,4.739S1.932,0,4.071,0C5.382,0,5.934.962,6.417.962,6.762.962,6.9.755,6.9.412h.207V3.091Z" transform="translate(36.431 0.069)"/><path class="d" d="M2.712,9.59H0V9.306H.429c.432,0,.573-.077.856-.782L4.068,0h.142L7.494,9.306h1.07v.213H4.639V9.306H5.924L5,6.465H2.141l-.5,1.7c-.024.095-.056.191-.087.284a1.856,1.856,0,0,0-.127.569c0,.123.119.355.571.355h.714V9.59Zm.856-7.317L2.212,6.322H4.925L3.568,2.273Z" transform="translate(43.805 0.071)"/><path class="c" d="M1.518,0V.206H3.174v8.86c0,.549-.621.687-1.38.687-.552,0-.9-.137-.9-.343s.621-.137.621-.687c0-.412-.138-.755-.552-.755A.985.985,0,0,0,0,8.928c0,.549.621,1.1,1.863,1.1,1.656,0,2.691-.893,2.691-2.335V.206H5.865V0Z" transform="translate(2.346 0.206)"/></g></g></svg>