<svg xmlns="http://www.w3.org/2000/svg" xmlns:xlink="http://www.w3.org/1999/xlink" width="56" height="30" viewBox="0 0 56 30"><defs><style>.a{fill:#fff;}.b{clip-path:url(#a);}.c{fill:#2b2e34;}</style><clipPath id="a"><rect class="a" width="56" height="30" transform="translate(438 5)"/></clipPath></defs><g class="b" transform="translate(-438 -5)"><g transform="translate(438 7)"><path class="c" d="M2.863,59.059c1.028-5.92,8.667-7.432,10.517,0-.36.036-10.05.036-10.517,0M8.121,52A8.4,8.4,0,0,0,0,60.1c.037,3.862,2.322,8.479,8.259,8.515a7.614,7.614,0,0,0,7.479-5.466s-2.438-.066-2.793,0c-.143.414-1.5,3.576-4.681,3.545-3.97-.041-5.539-4.587-5.539-5.624H16.173C16.311,55.1,12.3,52,8.121,52" transform="translate(0 -44.859)"/><path class="c" d="M122,0h2.7V23.758H122Z" transform="translate(-104.688)"/><path class="c" d="M152,0h2.7V23.758H152Z" transform="translate(-130.431)"/><g transform="translate(25.437 7.167)"><path class="c" d="M187.141,66.933c-3.144,0-5.3-2.751-5.3-6.533,0-3.4,2.376-6.159,5.3-6.159s5.3,2.757,5.3,6.159c-.005,3.745-2.164,6.533-5.3,6.533m0-14.746a8.054,8.054,0,0,0-7.88,8.213c0,4.97,3.239,8.469,7.88,8.469,4.7,0,7.875-3.556,7.875-8.469a8.05,8.05,0,0,0-7.875-8.213" transform="translate(-179.261 -52.187)"/><path class="c" d="M305.227,57.716c.212.026,2.143,0,2.3,0,.127-.482-.254-4.96-6.547-4.97-3.525-.005-6.361,1.445-6.308,4.5.069,3.786,4.715,4.2,5.837,4.406s5.25.933,5.25,2.7c0,2.152-1.826,2.9-4.017,2.956-1.926.051-4.551-.881-4.768-3.576h-2.731c.159,2.49,1.979,5.6,7.123,5.621s7.123-1.937,7.123-5c0-3.479-4.393-4.5-5.626-4.714-1.027-.179-5.25-.528-5.25-2.5,0-1.3.683-2.362,3.361-2.439,3.652-.1,4.2,2.126,4.25,3.008" transform="translate(-277.93 -52.669)"/></g></g></g></svg>