<svg id="Layer_1" data-name="Layer 1" xmlns="http://www.w3.org/2000/svg" viewBox="0 0 56 30">
  <defs>
    <style>
      .cls-1{fill:#2b2e34}
    </style>
  </defs>
  <g id="Group_7913" data-name="Group 7913">
    <path id="Path_1799" data-name="Path 1799" class="cls-1" d="M12.37 11.86a2.13 2.13 0 0 0 .84.79 2.55 2.55 0 0 0 1.21.27 2.22 2.22 0 0 0 2-1.18 2.49 2.49 0 0 0 .3-1.23V4.17h.93v6.39a3.41 3.41 0 0 1-.42 1.68 3.08 3.08 0 0 1-1.16 1.16 3.44 3.44 0 0 1-1.66.42 3.65 3.65 0 0 1-1.69-.39 2.88 2.88 0 0 1-1.17-1.1 3.07 3.07 0 0 1-.43-1.62v-.05h.92a2.31 2.31 0 0 0 .33 1.2Z"/>
    <path id="Path_1800" data-name="Path 1800" class="cls-1" d="M23.5 13.82a3.84 3.84 0 0 1-1.91-.47 3.42 3.42 0 0 1-1.34-1.3 3.8 3.8 0 0 1-.48-1.89v-6h.95v5.9a3 3 0 0 0 .35 1.48 2.47 2.47 0 0 0 1 1 3.06 3.06 0 0 0 2.88 0 2.45 2.45 0 0 0 1-1 3 3 0 0 0 .35-1.48V4.17h.95v6a3.69 3.69 0 0 1-.48 1.89 3.33 3.33 0 0 1-1.33 1.3 4.06 4.06 0 0 1-1.94.46Z"/>
    <path id="Path_1801" data-name="Path 1801" class="cls-1" d="M30.34 5.7v8h-.91V4.17h.89L36.09 12V4.17H37v9.48h-.8Z"/>
    <path id="Path_1802" data-name="Path 1802" class="cls-1" d="M40.25 8.37h4.59v.82h-4.59v3.6h4.59v.86h-5.53V4.17h5.55V5h-4.61Z"/>
    <path id="Path_1803" data-name="Path 1803" class="cls-1" d="M14.76 24.37h-.87v-2.79h-2.68v-.81h2.68v-2.71h.87v2.71h2.67v.81h-2.67Z"/>
    <path id="Path_1804" data-name="Path 1804" class="cls-1" d="m22.59 25.83-3.85-9.48h1l3.28 8.21 3.23-8.21h1l-3.79 9.48Z"/>
    <path id="Path_1805" data-name="Path 1805" class="cls-1" d="M29.62 16.35h.93v9.48h-.93Z"/>
    <path id="Path_1806" data-name="Path 1806" class="cls-1" d="M34.75 20.54h4.58v.83h-4.58V25h4.59v.86h-5.53v-9.51h5.54v.85h-4.6Z"/>
  </g>
</svg>