  <svg id="Layer_1" data-name="Layer 1" xmlns="http://www.w3.org/2000/svg" viewBox="0 -6 56 30">
    <defs>
      <clipPath id="clip-path" transform="translate(0 -5.79)">
        <path style="fill:none" d="M0 0h56v30H0z"/>
      </clipPath>
      <style>
        .cls-3{fill:#2b2e34}
      </style>
    </defs>
    <g id="Layer_2" data-name="Layer 2">
      <g style="clip-path:url(#clip-path)" id="Layer_1-2" data-name="Layer 1-2">
        <g id="Group_7822" data-name="Group 7822">
          <path id="Path_1785" data-name="Path 1785" class="cls-3" d="M1.52 16.5a.63.63 0 0 1-.63.39H.56a.65.65 0 0 1-.56-.61.59.59 0 0 1 .05-.23l4.4-9.45A1.07 1.07 0 0 1 5.56 6a1.14 1.14 0 0 1 1.15.65l4.4 9.47a.4.4 0 0 1 .07.24c0 .28-.26.48-.59.55a.71.71 0 0 1-.29 0 .67.67 0 0 1-.66-.38l-1.28-2.88h-5.6Zm6.33-4.1L6.08 8.47a12.34 12.34 0 0 1-.5-1.32 8.86 8.86 0 0 1-.5 1.33l-1.79 3.93Z" transform="translate(0 -5.79)"/>
          <path id="Path_1786" data-name="Path 1786" class="cls-3" d="M22.34 7.35a.66.66 0 0 1 0-1.32h8.92a.66.66 0 1 1 0 1.32h-3.69v9c0 .37-.34.57-.78.57s-.78-.2-.78-.57v-9Z" transform="translate(0 -5.79)"/>
          <path id="Path_1787" data-name="Path 1787" class="cls-3" d="M32.92 6.51c0-.38.33-.56.76-.56s.8.18.8.56v9.81c0 .37-.34.57-.8.57s-.76-.2-.76-.57Z" transform="translate(0 -5.79)"/>
          <path id="Path_1788" data-name="Path 1788" class="cls-3" d="M42.13 13.58a2.31 2.31 0 0 1 .9.16l3.06-7a.38.38 0 0 0 0-.21c0-.27-.26-.48-.6-.56h-.29a.68.68 0 0 0-.7.4l-3 7.31a1.93 1.93 0 0 1 .63-.1Z" transform="translate(0 -5.79)"/>
          <path id="Path_1789" data-name="Path 1789" class="cls-3" d="M39.31 15.29a6.75 6.75 0 0 1 1.07-1l-.12-.29-3.15-7.6a.73.73 0 0 0-.7-.4.93.93 0 0 0-.29 0 .67.67 0 0 0-.6.58.81.81 0 0 0 0 .22Z" transform="translate(0 -5.79)"/>
          <path id="Path_1790" data-name="Path 1790" class="cls-3" d="M55.35 15.48h-5.79c-.36 0-.6-.12-.6-.44v-3.22h5.56a.66.66 0 0 0 0-1.32H49V7.83c0-.33.16-.48.55-.48h5.7a.64.64 0 0 0 .65-.62v-.05a.63.63 0 0 0-.56-.68h-6.25c-1.15 0-1.65.43-1.65 1.49v7.8c0 1.05.5 1.48 1.65 1.48h6.26a.63.63 0 0 0 .65-.61.62.62 0 0 0-.59-.65h-.06Z" transform="translate(0 -5.79)"/>
          <path id="Path_1791" data-name="Path 1791" class="cls-3" d="M20.71 13.28a.73.73 0 0 0-.73.43 3.07 3.07 0 0 1-2.76 2.07 2 2 0 0 1-.19.42c-.11.23-.26.51-.42.82h.14a4.78 4.78 0 0 0 4.8-2.92.59.59 0 0 0 .05-.23.64.64 0 0 0-.56-.55 1.24 1.24 0 0 0-.33-.04Z" transform="translate(0 -5.79)"/>
          <path id="Path_1792" data-name="Path 1792" class="cls-3" d="M14.25 16.58c.22-.47.42-.87.58-1.18a4.16 4.16 0 0 1-2.16-4c0-2.72 1.6-4.4 4-4.4a3.09 3.09 0 0 1 3.14 1.82.72.72 0 0 0 .68.36 1.32 1.32 0 0 0 .39-.06.64.64 0 0 0 .5-.55.68.68 0 0 0-.07-.28c-.58-1.22-1.86-2.49-4.71-2.49a5.26 5.26 0 0 0-5.6 4.92 3.64 3.64 0 0 0 0 .66 5.2 5.2 0 0 0 3.25 5.2Z" transform="translate(0 -5.79)"/>
          <path id="Path_1793" data-name="Path 1793" class="cls-3" d="M26.4 20.14a.07.07 0 0 0-.07-.07.06.06 0 0 0-.06 0A5.38 5.38 0 0 1 24 21.28a.29.29 0 0 1-.33-.24c0-.55.41-1.05.41-1.19s-.12-.18-.25-.18h-.37a2.65 2.65 0 0 1-.84-.1.24.24 0 0 0-.12 0c-.05 0-.08 0-.13.16a2.4 2.4 0 0 1-.58.65.11.11 0 0 0-.06.1h.06a.21.21 0 0 0 .13-.05 1.76 1.76 0 0 0 .3-.24s.08-.08.1-.08a2.45 2.45 0 0 0 .75.07c.2 0 .24 0 .24.06a2.26 2.26 0 0 0-.57 1.17c0 .24.14.42.55.42a8 8 0 0 0 3.11-1.58.11.11 0 0 0 0-.08m-4.3 0a.07.07 0 0 0-.07-.07H22a1.67 1.67 0 0 1-1 .4.88.88 0 0 1-.91-.82.33.33 0 0 1 0-.14s0-.05-.07-.05-.66.4-.66.54v.1a1.84 1.84 0 0 1 .06.47.94.94 0 0 1-1 .89.65.65 0 0 1-.72-.57v-.11c0-.54.64-1.17 1.88-1.2.06 0 .12-.05.12-.08s0 0-.1-.06h-.12c-1.77 0-2.79.92-2.79 1.61s.52.79 1.16.79a2.79 2.79 0 0 0 2.27-1 1.46 1.46 0 0 0 .55.11 2.35 2.35 0 0 0 1.38-.7.11.11 0 0 0 0-.08m-6.81 2.62C15.21 24.25 14 26 13 26c-.44 0-.59-.24-.59-1a13 13 0 0 1 1.42-4.11 1.78 1.78 0 0 1 1.39 1.86M16.76 20a.42.42 0 0 0-.35-.35 7 7 0 0 1-2.21.55c.81-1.67 1.7-3.34 2.21-4.36a1.06 1.06 0 0 0 .15-.42.3.3 0 0 0-.08-.2c-.1-.12-.37-.47-.46-.47s-.14.07-.23.26c0 0-1.4 2.76-2.56 5.35l-.86.14s-.19.11-.19.18 0 .06.09.06h.79a15.6 15.6 0 0 0-1.38 3.86c0 1.08.53 1.52 1.24 1.52a3.69 3.69 0 0 0 3.24-3.27c0-1-.58-1.91-2.16-2.24l.06-.13c1-.09 1.94-.15 2.4-.24.22 0 .3-.16.3-.26" transform="translate(0 -5.79)"/>
          <path id="Path_1794" data-name="Path 1794" class="cls-3" d="M45.73 14.88c0 .75-.95 2.56-3.32 4.41.38-1.95 1.82-4.77 3.07-4.77.17 0 .25.13.25.36m1 .08c0-.43-.33-.69-1-.69-2 0-4.29 4.13-4.29 6.23 0 .73.27 1.2.91 1.2a5.37 5.37 0 0 0 2.77-1.46.11.11 0 0 0 0-.08.07.07 0 0 0-.07-.07.06.06 0 0 0-.06 0 3.21 3.21 0 0 1-2.11 1c-.4 0-.57-.38-.57-.95a5.61 5.61 0 0 1 0-.58c2.76-1.85 4.35-3.67 4.35-4.62m-4.55-.08c0 .75-.94 2.56-3.32 4.4.39-2 1.83-4.76 3.08-4.76q.24 0 .24.36m1 .08c0-.43-.32-.69-1-.69-2 0-4.29 4.13-4.29 6.23 0 .72.27 1.2.91 1.2a5.56 5.56 0 0 0 2.77-1.46.11.11 0 0 0 0-.08v-.07a3.17 3.17 0 0 1-2.12 1c-.4 0-.56-.37-.56-.94a2.91 2.91 0 0 1 0-.59c2.75-1.84 4.34-3.67 4.34-4.61M38 20.16a.07.07 0 0 0-.07-.07.06.06 0 0 0-.06 0 5.36 5.36 0 0 1-2.27 1.26c-.26 0-.33-.21-.33-.45a5.6 5.6 0 0 1 .13-.82c0-.13-.17-.13-.17-.13s-.52.05-.58.14a3 3 0 0 1-2 1.24.32.32 0 0 1-.34-.26V21c0-.5.78-1.41 2.37-1.44.06 0 .12 0 .12-.08s0 0-.09-.06h-.13c-2 0-3.59 1.2-3.59 1.9 0 .26.25.46.8.46a4.34 4.34 0 0 0 2.78-1.3 1.81 1.81 0 0 0-.14.61c0 .31.15.64.78.64a5.91 5.91 0 0 0 2.79-1.5.11.11 0 0 0 0-.08" transform="translate(0 -5.79)"/>
        </g>
      </g>
    </g>
  </svg>