<svg xmlns="http://www.w3.org/2000/svg" xmlns:xlink="http://www.w3.org/1999/xlink" width="56" height="30" viewBox="0 0 56 30"><defs><style>.a{fill:#fff;}.b{clip-path:url(#a);}.c,.d{fill:#2b2e34;}.d{stroke:#2b2e34;stroke-miterlimit:10;stroke-width:0.2px;}</style><clipPath id="a"><rect class="a" width="56" height="30" transform="translate(508 5)"/></clipPath></defs><g class="b" transform="translate(-508 -5)"><g transform="translate(508.25 13)"><g transform="translate(0 0)"><path class="c" d="M.25,1.024v.136H1.332V7.826H.25v.136H3.388V7.826H2.306V1.161H3.388V1.024Z" transform="translate(-0.25 -0.7)"/><path class="c" d="M18.567,7.825h1.082V1.161H18.567V1.024h2.085l3.293,5.31h.019V1.161H22.884V1.024h2.309v.136H24.112V8.1h-.195l-4.1-6.538H19.8V7.825h1.082v.137H18.567Z" transform="translate(-14.417 -0.7)"/><path class="c" d="M53.027,7.825h1.082V1.16h-.565a3.2,3.2,0,0,0-.438.034,1.26,1.26,0,0,0-.492.19,1.69,1.69,0,0,0-.477.492,3.2,3.2,0,0,0-.395.93h-.107V1.024h5.924V2.807h-.107a3.2,3.2,0,0,0-.395-.93,1.693,1.693,0,0,0-.477-.492,1.26,1.26,0,0,0-.492-.19,3.208,3.208,0,0,0-.438-.034h-.565V7.825h1.082v.137H53.027Z" transform="translate(-39.991 -0.7)"/><path class="c" d="M82.12,7.825H83.2V1.161H82.12V1.024h3.137v.136H84.176V7.825h1.082v.137H82.12Z" transform="translate(-63.568 -0.7)"/><path class="c" d="M100.653,7.825h1.082V1.161h-1.082V1.024h2.192l1.8,5.242h.019l1.8-5.242h2.153v.136h-1.082V7.825h1.082v.137h-3.138V7.825h1.082V1.219h-.019l-2.329,6.752L101.9,1.287h-.019V7.825h1.082v.137h-2.309Z" transform="translate(-77.902 -0.7)"/><path class="c" d="M133.892,7.227h.857L137.38.25h.234l2.65,6.977h.867v.137h-3V7.227h1.082l-1.023-2.709h-2.261l-1.023,2.709h1.081v.137h-2.095Zm3.167-5.68-1.072,2.835h2.144Z" transform="translate(-103.609 -0.12)"/><path class="c" d="M164.309,7.825h1.082V1.16h-.565a3.2,3.2,0,0,0-.438.034,1.26,1.26,0,0,0-.492.19,1.69,1.69,0,0,0-.477.492,3.2,3.2,0,0,0-.394.93h-.107V1.024h5.924V2.807h-.107a3.2,3.2,0,0,0-.395-.93,1.692,1.692,0,0,0-.477-.492,1.259,1.259,0,0,0-.492-.19,3.209,3.209,0,0,0-.439-.034h-.565V7.825h1.082v.137h-3.138Z" transform="translate(-126.056 -0.7)"/><path class="c" d="M193.274,7.825h1.081V1.16h-1.081V1.024h5.573V2.71h-.107a4.923,4.923,0,0,0-.273-.668,1.85,1.85,0,0,0-.351-.487,1.289,1.289,0,0,0-.487-.3,2.1,2.1,0,0,0-.682-.1H195.33V4.171h.634a2.19,2.19,0,0,0,.545-.058.831.831,0,0,0,.385-.219,1.3,1.3,0,0,0,.273-.438,5.4,5.4,0,0,0,.219-.716h.107v3.03h-.107q-.068-.283-.141-.546a1.7,1.7,0,0,0-.2-.468.972.972,0,0,0-.351-.326,1.166,1.166,0,0,0-.57-.122h-.789V7.825h1.842a1.615,1.615,0,0,0,.891-.229,2.074,2.074,0,0,0,.58-.546,2.357,2.357,0,0,0,.331-.658,3.451,3.451,0,0,0,.137-.565h.107V7.962h-5.943Z" transform="translate(-149.535 -0.7)"/><path class="c" d="M223.331,5.268h.107a3.9,3.9,0,0,0,.277.887,2.563,2.563,0,0,0,.375.594,1.661,1.661,0,0,0,.429.361,1.853,1.853,0,0,0,.453.185,2.169,2.169,0,0,0,.439.068q.209.01.395.01a2,2,0,0,0,.848-.156,1.47,1.47,0,0,0,.526-.395,1.415,1.415,0,0,0,.273-.516,1.906,1.906,0,0,0,.078-.511,1.255,1.255,0,0,0-.126-.585,1.408,1.408,0,0,0-.322-.414,1.828,1.828,0,0,0-.424-.278,2.954,2.954,0,0,0-.434-.165l-1.12-.341a2.885,2.885,0,0,1-1.193-.643,1.439,1.439,0,0,1-.4-1.072,2.1,2.1,0,0,1,.156-.814A1.9,1.9,0,0,1,224.1.835a2.047,2.047,0,0,1,.677-.429,2.582,2.582,0,0,1,1.432-.1A2.579,2.579,0,0,1,226.6.44l.3.131a.649.649,0,0,0,.268.059A.3.3,0,0,0,227.34.6a.662.662,0,0,0,.122-.171h.136V2.189h-.117a2.9,2.9,0,0,0-.2-.677,2.09,2.09,0,0,0-.365-.575,1.714,1.714,0,0,0-.541-.4,1.7,1.7,0,0,0-.736-.151,2.381,2.381,0,0,0-.516.063,1.637,1.637,0,0,0-.526.219,1.313,1.313,0,0,0-.4.409,1.18,1.18,0,0,0-.161.643,1.044,1.044,0,0,0,.127.531,1.227,1.227,0,0,0,.327.37,1.981,1.981,0,0,0,.448.253q.249.1.5.18l1.179.37q.185.058.468.156a2.1,2.1,0,0,1,.55.292,1.7,1.7,0,0,1,.458.516,1.593,1.593,0,0,1,.19.818,2.271,2.271,0,0,1-.17.872,2.179,2.179,0,0,1-.492.731,2.416,2.416,0,0,1-.779.507,2.678,2.678,0,0,1-1.033.19q-.2,0-.36,0a2.656,2.656,0,0,1-.292-.024q-.136-.02-.273-.044a2.9,2.9,0,0,1-.3-.073q-.195-.058-.419-.136a1.217,1.217,0,0,0-.389-.078.267.267,0,0,0-.2.058.509.509,0,0,0-.092.156h-.146Z" transform="translate(-172.781 -0.25)"/></g><g transform="translate(0 0)"><path class="d" d="M.25,7.825H1.332V1.161H.25V1.024H3.388v.136H2.306V7.825H3.388v.137H.25Z" transform="translate(-0.25 -0.7)"/><path class="d" d="M18.567,7.825h1.082V1.161H18.567V1.024h2.085l3.293,5.31h.019V1.161H22.884V1.024h2.309v.136H24.112V8.1h-.195l-4.1-6.538H19.8V7.825h1.082v.137H18.567Z" transform="translate(-14.417 -0.7)"/><path class="d" d="M53.027,7.825h1.082V1.16h-.565a3.2,3.2,0,0,0-.438.034,1.259,1.259,0,0,0-.492.19,1.69,1.69,0,0,0-.477.492,3.2,3.2,0,0,0-.395.93h-.107V1.024h5.924V2.807h-.107a3.2,3.2,0,0,0-.395-.93,1.693,1.693,0,0,0-.477-.492,1.26,1.26,0,0,0-.492-.19,3.208,3.208,0,0,0-.438-.034h-.565V7.825h1.082v.137H53.027Z" transform="translate(-39.99 -0.7)"/><path class="d" d="M82.12,7.825H83.2V1.161H82.12V1.024h3.138v.136H84.176V7.825h1.082v.137H82.12Z" transform="translate(-63.568 -0.7)"/><path class="d" d="M100.653,7.825h1.082V1.161h-1.082V1.024h2.192l1.8,5.242h.019l1.8-5.242h2.153v.136h-1.082V7.825h1.082v.137h-3.138V7.825h1.082V1.219h-.019l-2.329,6.752L101.9,1.287h-.019V7.825h1.082v.137h-2.309Z" transform="translate(-77.902 -0.7)"/><path class="d" d="M133.892,7.227h.857L137.38.25h.234l2.65,6.977h.867v.137h-3V7.227h1.082l-1.023-2.709h-2.261l-1.023,2.709h1.082v.137h-2.095Zm3.167-5.68-1.072,2.835h2.144Z" transform="translate(-103.609 -0.12)"/><path class="d" d="M164.309,7.825h1.082V1.16h-.565a3.2,3.2,0,0,0-.438.034,1.26,1.26,0,0,0-.492.19,1.69,1.69,0,0,0-.477.492,3.2,3.2,0,0,0-.395.93h-.107V1.024h5.924V2.807h-.107a3.2,3.2,0,0,0-.395-.93,1.694,1.694,0,0,0-.477-.492,1.26,1.26,0,0,0-.492-.19,3.209,3.209,0,0,0-.438-.034h-.565V7.825h1.082v.137h-3.138Z" transform="translate(-126.056 -0.7)"/><path class="d" d="M193.274,7.825h1.081V1.16h-1.081V1.024h5.573V2.71h-.107a4.925,4.925,0,0,0-.273-.668,1.848,1.848,0,0,0-.351-.487,1.289,1.289,0,0,0-.487-.3,2.1,2.1,0,0,0-.682-.1H195.33V4.171h.634a2.19,2.19,0,0,0,.545-.058.83.83,0,0,0,.385-.219,1.3,1.3,0,0,0,.273-.438,5.4,5.4,0,0,0,.219-.716h.107v3.03h-.107q-.068-.283-.141-.546a1.7,1.7,0,0,0-.2-.468.971.971,0,0,0-.351-.326,1.166,1.166,0,0,0-.57-.122h-.789V7.825h1.842a1.615,1.615,0,0,0,.891-.229,2.072,2.072,0,0,0,.58-.546,2.356,2.356,0,0,0,.331-.658,3.453,3.453,0,0,0,.137-.565h.107V7.962h-5.943Z" transform="translate(-149.535 -0.7)"/><path class="d" d="M223.331,5.268h.107a3.9,3.9,0,0,0,.277.887,2.562,2.562,0,0,0,.375.594,1.662,1.662,0,0,0,.429.361,1.853,1.853,0,0,0,.453.185,2.168,2.168,0,0,0,.438.068q.209.01.395.01a2,2,0,0,0,.848-.156,1.47,1.47,0,0,0,.526-.395,1.415,1.415,0,0,0,.273-.516,1.9,1.9,0,0,0,.078-.511,1.254,1.254,0,0,0-.126-.585,1.408,1.408,0,0,0-.322-.414,1.827,1.827,0,0,0-.424-.278,2.958,2.958,0,0,0-.434-.165L225.1,4.011a2.886,2.886,0,0,1-1.194-.643,1.439,1.439,0,0,1-.4-1.072,2.1,2.1,0,0,1,.156-.814A1.9,1.9,0,0,1,224.1.835a2.048,2.048,0,0,1,.677-.429,2.582,2.582,0,0,1,1.432-.1A2.578,2.578,0,0,1,226.6.44l.3.131a.649.649,0,0,0,.268.059A.3.3,0,0,0,227.34.6a.665.665,0,0,0,.122-.171h.136V2.189h-.117a2.9,2.9,0,0,0-.2-.677,2.088,2.088,0,0,0-.365-.575,1.714,1.714,0,0,0-.541-.4,1.7,1.7,0,0,0-.736-.151,2.38,2.38,0,0,0-.516.063,1.637,1.637,0,0,0-.526.219,1.313,1.313,0,0,0-.4.409,1.18,1.18,0,0,0-.161.643,1.044,1.044,0,0,0,.127.531,1.228,1.228,0,0,0,.327.37,1.98,1.98,0,0,0,.448.253q.249.1.5.18l1.179.37q.185.058.468.156a2.1,2.1,0,0,1,.55.292,1.7,1.7,0,0,1,.458.516,1.593,1.593,0,0,1,.19.818,2.27,2.27,0,0,1-.17.872,2.18,2.18,0,0,1-.492.731,2.417,2.417,0,0,1-.779.507,2.678,2.678,0,0,1-1.033.19q-.2,0-.361,0a2.657,2.657,0,0,1-.292-.024q-.136-.02-.273-.044a2.9,2.9,0,0,1-.3-.073q-.195-.058-.419-.136a1.217,1.217,0,0,0-.389-.078.266.266,0,0,0-.2.058.506.506,0,0,0-.092.156h-.146Z" transform="translate(-172.781 -0.25)"/></g><path class="c" d="M69.919,19.459c0,.911-1.153,3.116-4.041,5.364.469-2.376,2.22-5.8,3.742-5.8.2,0,.3.157.3.441m1.2.1c0-.527-.4-.84-1.238-.84-2.433,0-5.222,5.023-5.222,7.584,0,.882.327,1.465,1.11,1.465,1.039,0,2.519-1.039,3.372-1.778a.154.154,0,0,0,.043-.1.082.082,0,0,0-.085-.085c-.028,0-.043.014-.071.029a3.9,3.9,0,0,1-2.575,1.209c-.484,0-.683-.455-.683-1.153a4.314,4.314,0,0,1,.057-.711c3.358-2.248,5.293-4.468,5.293-5.62m-5.535-.1c0,.911-1.153,3.116-4.041,5.364.47-2.376,2.22-5.8,3.742-5.8.2,0,.3.157.3.441m1.2.1c0-.527-.4-.84-1.238-.84-2.433,0-5.222,5.023-5.222,7.584,0,.882.327,1.465,1.11,1.465,1.039,0,2.518-1.039,3.372-1.778a.154.154,0,0,0,.043-.1.082.082,0,0,0-.086-.085c-.028,0-.043.014-.071.029a3.9,3.9,0,0,1-2.575,1.209c-.484,0-.683-.455-.683-1.153a4.339,4.339,0,0,1,.057-.711c3.358-2.248,5.293-4.468,5.293-5.62m-6.3,6.332a.082.082,0,0,0-.085-.085c-.029,0-.043.014-.071.029-.384.313-1.907,1.536-2.76,1.536-.313,0-.4-.256-.4-.555a5.831,5.831,0,0,1,.157-1c0-.157-.213-.157-.213-.157-.171,0-.626.057-.7.171a3.64,3.64,0,0,1-2.476,1.508.367.367,0,0,1-.413-.384c0-.612.953-1.722,2.889-1.75.071,0,.142-.057.142-.1s-.028-.057-.114-.071c-.028,0-.085-.014-.157-.014-2.49,0-4.368,1.466-4.368,2.305,0,.327.3.569.968.569a5.324,5.324,0,0,0,3.386-1.608,2.038,2.038,0,0,0-.171.74c0,.384.185.783.953.783.953,0,2.575-1.11,3.386-1.821a.154.154,0,0,0,.043-.1m-12.735-.028a.082.082,0,0,0-.085-.086.078.078,0,0,0-.071.029,6.458,6.458,0,0,1-2.789,1.437.35.35,0,0,1-.4-.384c0-.668.5-1.28.5-1.451,0-.128-.142-.214-.3-.214s-.228.015-.455.015a3.056,3.056,0,0,1-1.025-.114.229.229,0,0,0-.142-.057c-.057,0-.1.057-.157.2a2.739,2.739,0,0,1-.712.8.148.148,0,0,0-.071.114c0,.029.029.043.071.043a.265.265,0,0,0,.157-.057,2.109,2.109,0,0,0,.37-.3c.057-.057.1-.1.128-.1.185.086.2.086.911.086.242,0,.3.028.3.071a.107.107,0,0,1-.029.057,2.828,2.828,0,0,0-.7,1.422c0,.285.171.512.669.512,1.067,0,3.429-1.579,3.785-1.921a.154.154,0,0,0,.043-.1m-5.236,0a.082.082,0,0,0-.086-.086c-.028,0-.043.014-.071.029a1.93,1.93,0,0,1-1.21.484,1.051,1.051,0,0,1-1.1-1.167c0-.043-.028-.057-.085-.057-.157,0-.8.484-.8.655a.529.529,0,0,0,.028.128,1.985,1.985,0,0,1,.071.569A1.144,1.144,0,0,1,38.047,27.5a.8.8,0,0,1-.882-.825c0-.654.783-1.423,2.291-1.465.071,0,.142-.057.142-.1s-.029-.057-.114-.071c-.029,0-.085-.014-.157-.014-2.148,0-3.386,1.124-3.386,1.964,0,.683.626.967,1.409.967a3.394,3.394,0,0,0,2.76-1.266,1.8,1.8,0,0,0,.669.128,2.9,2.9,0,0,0,1.679-.854.154.154,0,0,0,.043-.1m-8.295,3.187c0,1.793-1.423,3.941-2.7,3.941-.526,0-.711-.3-.711-1.2a15.909,15.909,0,0,1,1.722-5.009,2.164,2.164,0,0,1,1.693,2.263m1.807-3.33a.528.528,0,0,0-.427-.427,8.737,8.737,0,0,1-2.689.669c.982-2.035,2.063-4.069,2.689-5.307a1.186,1.186,0,0,0,.185-.512.358.358,0,0,0-.1-.242c-.128-.142-.455-.569-.555-.569s-.171.085-.285.313c0,0-1.707,3.358-3.116,6.517-.327.057-.683.114-1.053.171-.057,0-.227.128-.227.213,0,.043.028.071.114.071h.185c.114,0,.313,0,.768.029a19.287,19.287,0,0,0-1.679,4.7c0,1.323.655,1.85,1.508,1.85a4.5,4.5,0,0,0,3.955-3.97c0-1.224-.711-2.334-2.632-2.732l.071-.156c1.2-.114,2.362-.185,2.917-.3.27-.057.37-.185.37-.313" transform="translate(-23.265 -15.139)"/></g></g></svg>