<svg id="Logo_-_FB" data-name="Logo - FB" xmlns="http://www.w3.org/2000/svg" width="125" height="34.756" viewBox="0 0 125 34.756">
  <path id="Path_988" data-name="Path 988" d="M12.2,25.272l.579-2.16c.145-.513.326-1.135.615-1.9a11.817,11.817,0,0,1,1.086-2.27,7.42,7.42,0,0,1,1.629-1.9,3.23,3.23,0,0,1,2.208-.805,1.662,1.662,0,0,1,.76.146.666.666,0,0,1,.326.659.744.744,0,0,1-.109.4c-.072.11-.145.256-.217.366a1.514,1.514,0,0,0-.253.4,1.181,1.181,0,0,0-.109.513.662.662,0,0,0,.253.549,1.127,1.127,0,0,0,.869.256,1.03,1.03,0,0,0,1.013-.476A1.789,1.789,0,0,0,21.1,18.1a1.88,1.88,0,0,0-.145-.732,2.277,2.277,0,0,0-.507-.7,2.761,2.761,0,0,0-.832-.549,3.088,3.088,0,0,0-1.231-.22,5.425,5.425,0,0,0-2.425.622,8.815,8.815,0,0,0-2.244,1.684A11.945,11.945,0,0,0,11.872,20.7a12.766,12.766,0,0,0-1.267,3.075l-.326,1.5H7.6l-.109.4h2.678L7.058,37.426A19.118,19.118,0,0,1,4.995,42.7q-1.086,1.647-2.28,1.647a1.027,1.027,0,0,1-.615-.183.58.58,0,0,1-.253-.549,1.655,1.655,0,0,1,.145-.732,1.45,1.45,0,0,0,.145-.659.678.678,0,0,0-.217-.586.911.911,0,0,0-.579-.146,1.247,1.247,0,0,0-1.013.4A1.515,1.515,0,0,0,0,42.845a1.709,1.709,0,0,0,.217.915,2.211,2.211,0,0,0,.579.586,2.735,2.735,0,0,0,.76.293,5.342,5.342,0,0,0,.76.073,4.017,4.017,0,0,0,2.353-.769,8.02,8.02,0,0,0,2.063-2.087,14.647,14.647,0,0,0,1.665-3A28.62,28.62,0,0,0,9.592,35.34l2.5-9.665h3.475l.109-.4Z" transform="translate(0 -10.066)"/>
  <path id="Path_989" data-name="Path 989" d="M52.638,51.365l3.33-9.665H54.014l-1.991,5.821a10.552,10.552,0,0,1-1.086,2.233,12.649,12.649,0,0,1-1.556,2.05,10.579,10.579,0,0,1-1.737,1.5,2.863,2.863,0,0,1-1.629.586.775.775,0,0,1-.724-.329,1.135,1.135,0,0,1-.217-.7,3.665,3.665,0,0,1,.109-.7,11.04,11.04,0,0,1,.326-1.062L48.729,41.7H44.169l-.109.4h2.5l-2.751,7.871A10.717,10.717,0,0,1,43.481,51a4.094,4.094,0,0,0-.181,1.025,1.947,1.947,0,0,0,.688,1.647,2.868,2.868,0,0,0,1.918.586,3.072,3.072,0,0,0,1.484-.366,8.163,8.163,0,0,0,1.339-.952,9.364,9.364,0,0,0,1.194-1.208c.362-.4.688-.805.941-1.135v.073a10.715,10.715,0,0,0-.326,1.025,3.728,3.728,0,0,0-.109.915,1.475,1.475,0,0,0,.543,1.281,2.555,2.555,0,0,0,1.484.366,3.024,3.024,0,0,0,1.448-.329,3.359,3.359,0,0,0,1.05-.805,4.958,4.958,0,0,0,.652-.952c.181-.329.29-.549.362-.7l-.326-.146a4.411,4.411,0,0,1-.362.7c-.181.293-.4.549-.615.842a4.989,4.989,0,0,1-.8.732,1.453,1.453,0,0,1-.9.329.783.783,0,0,1-.579-.256,1.021,1.021,0,0,1-.181-.586,2.427,2.427,0,0,1,.145-.842C52.457,51.951,52.53,51.658,52.638,51.365Z" transform="translate(-27.628 -26.421)"/>
  <path id="Path_990" data-name="Path 990" d="M88.25,35.8a6.209,6.209,0,0,1-.615.842,4.99,4.99,0,0,1-.8.732,1.434,1.434,0,0,1-.869.329.783.783,0,0,1-.579-.256,1.021,1.021,0,0,1-.181-.586,2.427,2.427,0,0,1,.145-.842c.109-.293.181-.586.29-.879L92.268,16.1H87.78l-.109.4h2.5L83.907,34.258c-.109.329-.217.659-.326,1.062a3.845,3.845,0,0,0-.181,1.062,1.475,1.475,0,0,0,.543,1.281,2.555,2.555,0,0,0,1.484.366,3.023,3.023,0,0,0,1.448-.329,3.359,3.359,0,0,0,1.05-.805,3.724,3.724,0,0,0,.652-.952c.181-.329.29-.549.362-.7l-.326-.146A4.412,4.412,0,0,1,88.25,35.8Z" transform="translate(-53.213 -10.193)"/>
  <path id="Path_991" data-name="Path 991" d="M171.326,41.176a4.155,4.155,0,0,0-1.013-.366,5.827,5.827,0,0,0-1.122-.11,5.611,5.611,0,0,0-2.859.842,9.931,9.931,0,0,0-2.534,2.087,10.785,10.785,0,0,0-1.81,2.782,6.784,6.784,0,0,0-.688,2.929,5.418,5.418,0,0,0,.253,1.464,3.489,3.489,0,0,0,.76,1.391,3.86,3.86,0,0,0,1.339,1.025,4.766,4.766,0,0,0,2.027.4,4.524,4.524,0,0,0,2.063-.4,6.247,6.247,0,0,0,1.448-.952,4.96,4.96,0,0,0,.941-1.062,5.605,5.605,0,0,0,.471-.769l-.326-.183c-.145.183-.362.439-.579.769a5.31,5.31,0,0,1-.869.988,4.14,4.14,0,0,1-1.194.842,3.2,3.2,0,0,1-1.593.366,2.713,2.713,0,0,1-1.991-.769,3.02,3.02,0,0,1-.8-2.306,8.068,8.068,0,0,1,.217-1.9,12.262,12.262,0,0,1,.507-1.794c.217.037.507.037.8.073a8.089,8.089,0,0,0,.941.037c.217,0,.507-.037.9-.073a10.132,10.132,0,0,0,1.339-.22,11.881,11.881,0,0,0,1.52-.439,6.349,6.349,0,0,0,1.412-.7,3.4,3.4,0,0,0,1.05-.988,2.475,2.475,0,0,0,.4-1.355,1.645,1.645,0,0,0-.29-.952A2.533,2.533,0,0,0,171.326,41.176ZM170.2,43.848a3.439,3.439,0,0,1-1.086,1.208,5.95,5.95,0,0,1-3.511,1.172,8.643,8.643,0,0,1-1.448-.11,7.7,7.7,0,0,1,.724-1.611,11.692,11.692,0,0,1,1.122-1.611,6,6,0,0,1,1.448-1.281,3.166,3.166,0,0,1,1.665-.513,1.443,1.443,0,0,1,1.122.4,1.279,1.279,0,0,1,.362.915A2.509,2.509,0,0,1,170.2,43.848Z" transform="translate(-102.917 -25.787)"/>
  <path id="Path_992" data-name="Path 992" d="M204.768,51.234a5.505,5.505,0,0,1-.543.842,4.861,4.861,0,0,1-.76.732,1.68,1.68,0,0,1-1.013.329c-.471,0-.688-.256-.688-.732a5.444,5.444,0,0,1,.181-1.208c.109-.476.253-.952.362-1.391l3.077-8.64h-1.955l-.47,1.391h-.072a1.538,1.538,0,0,0-.579-1.281,2.162,2.162,0,0,0-1.448-.476,4.428,4.428,0,0,0-1.665.366,10.931,10.931,0,0,0-1.918,1.025,14.737,14.737,0,0,0-1.918,1.538,11.8,11.8,0,0,0-1.665,1.9,9.514,9.514,0,0,0-1.158,2.16,6.311,6.311,0,0,0-.434,2.27,5.173,5.173,0,0,0,.253,1.611A2.668,2.668,0,0,0,193,52.808a2.89,2.89,0,0,0,.977.659,2.92,2.92,0,0,0,1.122.22,4.277,4.277,0,0,0,1.7-.329,6.621,6.621,0,0,0,1.375-.842,10.708,10.708,0,0,0,1.122-1.1c.326-.366.652-.732.9-1.062h.072q-.109.384-.217.879c-.036.329-.072.549-.072.7,0,1.135.615,1.721,1.846,1.721a2.834,2.834,0,0,0,1.375-.329,4.6,4.6,0,0,0,1.05-.769,4.225,4.225,0,0,0,.724-.915c.181-.329.326-.586.434-.805l-.362-.183C205.022,50.758,204.913,50.941,204.768,51.234Zm-4.778-1.025a10.409,10.409,0,0,1-1.194,1.428,7.132,7.132,0,0,1-1.556,1.208,3.372,3.372,0,0,1-1.665.513,1.269,1.269,0,0,1-1.158-.586,2.5,2.5,0,0,1-.362-1.464,7.41,7.41,0,0,1,.253-1.867,13.787,13.787,0,0,1,.724-2.16,18.374,18.374,0,0,1,1.122-2.233,13.283,13.283,0,0,1,1.412-1.94,7.333,7.333,0,0,1,1.665-1.391,3.668,3.668,0,0,1,1.81-.513,1.758,1.758,0,0,1,.833.183,1.208,1.208,0,0,1,.507.439,1.519,1.519,0,0,1,.253.549,2.858,2.858,0,0,1,.072.549,2.487,2.487,0,0,1-.109.659c-.072.256-.217.659-.471,1.355l-1.484,4.174A7.063,7.063,0,0,1,199.991,50.209Z" transform="translate(-122.569 -25.85)"/>
  <path id="Path_993" data-name="Path 993" d="M244.311,51.365l3.33-9.665h-1.955L243.7,47.521a10.552,10.552,0,0,1-1.086,2.233,12.647,12.647,0,0,1-1.556,2.05,10.581,10.581,0,0,1-1.737,1.5,2.863,2.863,0,0,1-1.629.586.815.815,0,0,1-.724-.329,1.135,1.135,0,0,1-.217-.7,3.664,3.664,0,0,1,.109-.7,11.018,11.018,0,0,1,.326-1.062L240.4,41.7h-4.633l-.109.4h2.5l-2.751,7.871A10.7,10.7,0,0,1,235.081,51a4.1,4.1,0,0,0-.181,1.025,1.947,1.947,0,0,0,.688,1.647,2.868,2.868,0,0,0,1.918.586,3.072,3.072,0,0,0,1.484-.366,8.163,8.163,0,0,0,1.339-.952,9.362,9.362,0,0,0,1.194-1.208c.362-.4.688-.805.941-1.135l.072.073a10.7,10.7,0,0,0-.326,1.025,3.728,3.728,0,0,0-.109.915,1.475,1.475,0,0,0,.543,1.281,2.555,2.555,0,0,0,1.484.366,3.024,3.024,0,0,0,1.448-.329,3.36,3.36,0,0,0,1.05-.805,3.725,3.725,0,0,0,.652-.952c.181-.329.29-.549.362-.7l-.326-.146a4.418,4.418,0,0,1-.362.7c-.181.293-.4.549-.615.842a4.988,4.988,0,0,1-.8.732,1.453,1.453,0,0,1-.9.329.784.784,0,0,1-.579-.256,1.021,1.021,0,0,1-.181-.586,2.426,2.426,0,0,1,.145-.842C244.13,51.951,244.2,51.658,244.311,51.365Z" transform="translate(-149.877 -26.421)"/>
  <path id="Path_994" data-name="Path 994" d="M280.005,48.268a5.226,5.226,0,0,0,.688-.952c.181-.329.29-.549.362-.7l-.326-.146a4.415,4.415,0,0,1-.362.7,6.214,6.214,0,0,1-.615.842,5.2,5.2,0,0,1-.833.732,1.551,1.551,0,0,1-.941.329.8.8,0,0,1-.688-.256,1.064,1.064,0,0,1-.217-.7,2.688,2.688,0,0,1,.145-.915c.109-.293.181-.586.29-.879l3.221-9.043h3.077l.109-.4h-3.077l1.013-2.782h-2.027l-1.013,2.782h-2.534l-.109.4H278.7l-2.751,7.725q-.217.6-.434,1.318a4.523,4.523,0,0,0-.217,1.281,1.727,1.727,0,0,0,.543,1.281,2.253,2.253,0,0,0,1.593.513,3.29,3.29,0,0,0,2.57-1.135Z" transform="translate(-175.654 -21.603)"/>
  <path id="Path_995" data-name="Path 995" d="M304.129,40.929a1.177,1.177,0,0,0-.941-.329,1.985,1.985,0,0,0-.941.22,2.715,2.715,0,0,0-.724.549,2.931,2.931,0,0,0-.543.769,6.277,6.277,0,0,0-.471.842L296.2,50.851h-.072c.109-.622.253-1.355.4-2.27a20.44,20.44,0,0,0,.217-3.222,7.857,7.857,0,0,0-.145-1.538,6.95,6.95,0,0,0-.507-1.538,3.276,3.276,0,0,0-.941-1.172,2.362,2.362,0,0,0-1.52-.476,2.02,2.02,0,0,0-1.267.4,2.974,2.974,0,0,0-.833.952,5.729,5.729,0,0,0-.507,1.208c-.109.4-.181.769-.253,1.1l.4.11c.072-.256.145-.586.253-.952a6.7,6.7,0,0,1,.4-1.1,3.359,3.359,0,0,1,.615-.915,1.085,1.085,0,0,1,.869-.4.617.617,0,0,1,.471.256,2.786,2.786,0,0,1,.4,1.062,17.409,17.409,0,0,1,.29,2.16q.109,1.428.109,3.624a19.677,19.677,0,0,1-.471,4.393,22.407,22.407,0,0,1-1.194,3.807,12.009,12.009,0,0,1-1.593,2.673,2.168,2.168,0,0,1-1.629,1.025,1.024,1.024,0,0,1-.688-.183.6.6,0,0,1-.253-.513,1.527,1.527,0,0,1,.036-.439,2.534,2.534,0,0,1,.109-.293c.036-.073.072-.183.109-.256a.928.928,0,0,0,.036-.366.617.617,0,0,0-.217-.513.914.914,0,0,0-.579-.183,1.984,1.984,0,0,0-.9.256,1.077,1.077,0,0,0-.434.988,1.779,1.779,0,0,0,.652,1.428,2.808,2.808,0,0,0,1.737.513,2.6,2.6,0,0,0,1.339-.4,6.565,6.565,0,0,0,1.231-1.062,10.035,10.035,0,0,0,1.122-1.5,20.191,20.191,0,0,0,1.013-1.757l1.629-3.075,5.14-9.445a11.821,11.821,0,0,1,1.013-1.574,1.212,1.212,0,0,1,.724-.513c.253-.037.4.073.4.366a.554.554,0,0,1-.145.4.626.626,0,0,0-.145.476c0,.329.181.513.543.513a1.253,1.253,0,0,0,.9-.329,1.2,1.2,0,0,0,.326-.879A1.158,1.158,0,0,0,304.129,40.929Z" transform="translate(-183.056 -25.723)"/>
  <path id="Path_996" data-name="Path 996" d="M139.58,2.393a1.365,1.365,0,0,0,.253-.7,1.348,1.348,0,0,0-.072-.513,1.694,1.694,0,0,0-.326-.549A1.441,1.441,0,0,0,138.856.2a2.507,2.507,0,0,0-.869-.22,3.537,3.537,0,0,0-1.448.146A5.408,5.408,0,0,0,134.657,1.3a8.318,8.318,0,0,0-1.448,1.538,11.411,11.411,0,0,0-1.3,2.453l-.724,1.977h0l-5.1,14.571a8.176,8.176,0,0,0-.4,1.318,6.692,6.692,0,0,0-.181,1.318,3.2,3.2,0,0,0,1.122,2.563,2.983,2.983,0,0,0,1.05.586,4.215,4.215,0,0,0,1.122.183,5.88,5.88,0,0,0,1.81-.366,12.254,12.254,0,0,0,1.955-.988,14.116,14.116,0,0,0,1.882-1.5,13.075,13.075,0,0,0,1.593-1.867,9.934,9.934,0,0,0,1.122-2.123,6.31,6.31,0,0,0,.434-2.27,4.535,4.535,0,0,0-.217-1.428,4.005,4.005,0,0,0-.688-1.208,4.315,4.315,0,0,0-1.122-.842,3.5,3.5,0,0,0-2.968,0,6.72,6.72,0,0,0-1.267.805,7.742,7.742,0,0,0-1.086,1.1,10.006,10.006,0,0,0-.832,1.135l-.072-.037L133.68,5.835h0l.29-.842a10.759,10.759,0,0,1,.543-1.391,7.486,7.486,0,0,1,.869-1.574A5.788,5.788,0,0,1,136.54.709a1.621,1.621,0,0,1,1.3-.476,1.189,1.189,0,0,1,.543.146c.181.073.217.256.217.476a.7.7,0,0,1-.072.293c-.072.073-.109.183-.181.256-.072.11-.109.183-.181.293a.623.623,0,0,0-.109.366.591.591,0,0,0,.181.4c.109.146.326.183.615.22A.72.72,0,0,0,139.58,2.393ZM130.748,17.11a7.432,7.432,0,0,1,1.593-1.318,3.028,3.028,0,0,1,1.593-.513,2.007,2.007,0,0,1,1.375.439,1.833,1.833,0,0,1,.507,1.355,8.732,8.732,0,0,1-.29,2.05,15.213,15.213,0,0,1-.76,2.27,18.645,18.645,0,0,1-1.158,2.233,13.438,13.438,0,0,1-1.448,1.94,6.985,6.985,0,0,1-1.629,1.355,3.389,3.389,0,0,1-1.7.513c-1.158,0-1.737-.622-1.774-1.9a9.022,9.022,0,0,1,.29-2.087,18.835,18.835,0,0,1,.8-2.27,18.189,18.189,0,0,1,1.158-2.2A15.735,15.735,0,0,1,130.748,17.11Z" transform="translate(-80.075 0.036)"/>
  <path id="Path_997" data-name="Path 997" d="M109.25,35.8a6.208,6.208,0,0,1-.615.842,4.99,4.99,0,0,1-.8.732,1.434,1.434,0,0,1-.869.329.783.783,0,0,1-.579-.256,1.021,1.021,0,0,1-.181-.586,2.427,2.427,0,0,1,.145-.842c.109-.293.181-.586.29-.879L113.268,16.1H108.78l-.109.4h2.5l-6.262,17.756c-.109.329-.217.659-.326,1.062a3.845,3.845,0,0,0-.181,1.062,1.475,1.475,0,0,0,.543,1.281,2.555,2.555,0,0,0,1.484.366,3.024,3.024,0,0,0,1.448-.329,3.359,3.359,0,0,0,1.05-.805,3.724,3.724,0,0,0,.652-.952c.181-.329.29-.549.362-.7l-.326-.146A4.41,4.41,0,0,1,109.25,35.8Z" transform="translate(-66.612 -10.193)"/>
  <path id="Path_1715" data-name="Path 1715" d="M1.287-2.372V-2.79h.266a.876.876,0,0,1,.112.008.385.385,0,0,1,.106.028.2.2,0,0,1,.078.059.159.159,0,0,1,.03.1q0,.144-.087.182a.566.566,0,0,1-.224.038ZM.972-3.036v1.59h.315v-.679h.2l.387.679H2.2l-.425-.694a.667.667,0,0,0,.163-.034.4.4,0,0,0,.133-.076.334.334,0,0,0,.089-.127.49.49,0,0,0,.032-.188.4.4,0,0,0-.161-.364.837.837,0,0,0-.461-.106Zm-.5.8a1.161,1.161,0,0,1,.083-.446,1.092,1.092,0,0,1,.228-.351,1.038,1.038,0,0,1,.34-.231,1.056,1.056,0,0,1,.419-.083,1.047,1.047,0,0,1,.416.083,1.038,1.038,0,0,1,.34.231,1.118,1.118,0,0,1,.23.351,1.139,1.139,0,0,1,.085.446,1.153,1.153,0,0,1-.085.448,1.136,1.136,0,0,1-.23.355,1.024,1.024,0,0,1-.34.233,1.047,1.047,0,0,1-.416.083A1.056,1.056,0,0,1,1.118-1.2a1.024,1.024,0,0,1-.34-.233,1.109,1.109,0,0,1-.228-.355A1.176,1.176,0,0,1,.467-2.239Zm-.387,0a1.4,1.4,0,0,0,.12.588A1.386,1.386,0,0,0,.52-1.2a1.4,1.4,0,0,0,.465.285,1.563,1.563,0,0,0,.552.1,1.563,1.563,0,0,0,.552-.1A1.4,1.4,0,0,0,2.554-1.2a1.386,1.386,0,0,0,.321-.448,1.4,1.4,0,0,0,.12-.588,1.391,1.391,0,0,0-.12-.584,1.364,1.364,0,0,0-.321-.446,1.443,1.443,0,0,0-.465-.285,1.537,1.537,0,0,0-.552-.1,1.537,1.537,0,0,0-.552.1A1.443,1.443,0,0,0,.52-3.27,1.364,1.364,0,0,0,.2-2.824,1.391,1.391,0,0,0,.08-2.239Z" transform="translate(122.005 14.543)"/>
</svg>
