<svg xmlns="http://www.w3.org/2000/svg" viewBox="0 0 14.757 14.757"><path d="M7.379 14.757c-2.415 0-2.7-.009-3.637-.051a4.962 4.962 0 01-1.672-.311 2.793 2.793 0 01-1.034-.672 2.8 2.8 0 01-.674-1.036 5.01 5.01 0 01-.31-1.671c-.043-.974-.053-1.263-.053-3.637s.009-2.663.053-3.637a5.009 5.009 0 01.31-1.671 2.8 2.8 0 01.674-1.036A2.792 2.792 0 012.07.363 4.967 4.967 0 013.742.052c.965-.044 1.252-.053 3.637-.053s2.67.009 3.637.053a4.933 4.933 0 011.67.311 2.78 2.78 0 011.035.672 2.774 2.774 0 01.673 1.036 4.944 4.944 0 01.311 1.671c.042.931.051 1.212.051 3.637s-.009 2.706-.051 3.637a4.945 4.945 0 01-.311 1.671 2.776 2.776 0 01-.673 1.036 2.777 2.777 0 01-1.035.672 4.929 4.929 0 01-1.67.311c-.937.042-1.222.051-3.637.051zm0-12a4.627 4.627 0 00-4.622 4.621 4.627 4.627 0 004.622 4.621A4.627 4.627 0 0012 7.378a4.627 4.627 0 00-4.621-4.62zm4.8-1.263a1.081 1.081 0 00-1.08 1.08 1.081 1.081 0 001.08 1.08 1.081 1.081 0 001.08-1.08 1.081 1.081 0 00-1.08-1.079zm-4.8 8.885a3 3 0 01-3-3 3 3 0 013-3 3 3 0 013 3 3 3 0 01-3 3z"/></svg>