<svg xmlns="http://www.w3.org/2000/svg" viewBox="0 0 14.397 14.397"><path d="M7.2 0a7.2 7.2 0 00-2.889 13.792 6.369 6.369 0 01.124-1.653c.139-.584.926-3.922.926-3.922a2.772 2.772 0 01-.229-1.139c0-1.067.619-1.863 1.388-1.863a.964.964 0 01.971 1.081 15.5 15.5 0 01-.636 2.554 1.114 1.114 0 001.136 1.387c1.364 0 2.282-1.751 2.282-3.827a2.694 2.694 0 00-2.995-2.758 3.408 3.408 0 00-3.544 3.446 2.076 2.076 0 00.474 1.412.35.35 0 01.1.4c-.034.131-.113.451-.146.577a.248.248 0 01-.36.18 2.772 2.772 0 01-1.475-2.75c0-2.044 1.724-4.5 5.144-4.5a4.3 4.3 0 014.558 4.124c0 2.824-1.569 4.934-3.885 4.934a2.066 2.066 0 01-1.758-.9s-.418 1.658-.506 1.978a6 6 0 01-.725 1.542A7.2 7.2 0 107.2 0" fill-rule="evenodd"/></svg>