<svg xmlns="http://www.w3.org/2000/svg" viewBox="0 0 25.412 18"><path d="M10.082 12.319V5.128l6.866 3.608zm15.076-8.437a5.564 5.564 0 00-1.01-2.54A3.616 3.616 0 0021.602.258c-3.556-.259-8.89-.259-8.89-.259H12.7s-5.334 0-8.89.259a3.618 3.618 0 00-2.547 1.084 5.559 5.559 0 00-1.009 2.54A38.985 38.985 0 000 8.024v1.942a38.966 38.966 0 00.254 4.142 5.559 5.559 0 001.009 2.54 4.289 4.289 0 002.8 1.094c2.033.2 8.64.258 8.64.258s5.34-.008 8.9-.267a3.622 3.622 0 002.546-1.084 5.564 5.564 0 001.01-2.54 38.966 38.966 0 00.254-4.142V8.025a38.985 38.985 0 00-.254-4.142z" fill-rule="evenodd"/></svg>