<svg xmlns="http://www.w3.org/2000/svg" viewBox="0 0 21.6 18"><path d="M21.6 2.131a8.655 8.655 0 01-2.544.715A4.534 4.534 0 0021 .333a8.727 8.727 0 01-2.816 1.1A4.37 4.37 0 0014.954 0a4.489 4.489 0 00-4.43 4.544 4.636 4.636 0 00.114 1.035A12.476 12.476 0 011.503.83a4.626 4.626 0 00-.6 2.287 4.574 4.574 0 001.971 3.782 4.351 4.351 0 01-2.008-.567v.056a4.518 4.518 0 003.556 4.455 4.226 4.226 0 01-1.168.16 4.3 4.3 0 01-.834-.081 4.448 4.448 0 004.139 3.154 8.75 8.75 0 01-5.5 1.946A8.867 8.867 0 010 15.96 12.338 12.338 0 006.793 18c8.152 0 12.609-6.923 12.609-12.928 0-.2 0-.4-.011-.589a9.094 9.094 0 002.21-2.352" fill-rule="evenodd"/></svg>